<?xml version="1.0" encoding="UTF-8"?>
<svg id="Camada_2" data-name="Camada 2" xmlns="http://www.w3.org/2000/svg" viewBox="0 0 194.07 75.73">
  <defs>
    <style>
      .cls-1 {
        fill: none;
      }

      .cls-2 {
        fill: #565656;
      }
    </style>
  </defs>
  <g id="conteúdo">
    <g>
      <rect class="cls-1" width="194.07" height="75.73"/>
      <g>
        <path class="cls-2" d="M4.53,20.64h1.8l2.88,7.71h-1.69l-.62-1.69.23.17h-3.43l.23-.17-.6,1.69h-1.69l2.87-7.71ZM4.12,25.53h2.65l-.13.17-1.29-3.52h.15l-1.28,3.52-.1-.17Z"/>
        <path class="cls-2" d="M10.5,26.46c.14.23.33.41.56.55s.49.2.77.2c.2,0,.37-.04.51-.12.14-.08.2-.19.2-.32,0-.16-.06-.27-.19-.33s-.34-.13-.62-.2c-.25-.07-.49-.15-.72-.23-.23-.08-.44-.19-.62-.32s-.33-.29-.44-.49-.16-.44-.16-.73c0-.26.05-.49.15-.69.1-.21.24-.38.42-.52.18-.14.39-.26.63-.34.24-.08.5-.12.79-.12.49,0,.91.1,1.25.3.34.2.61.44.81.72l-.88.88c-.12-.19-.29-.35-.49-.46s-.42-.17-.66-.17c-.19,0-.34.04-.46.11-.12.07-.18.18-.18.31,0,.08.02.14.06.19.04.05.1.1.17.14.08.04.17.08.28.12.11.03.24.07.38.11.24.06.48.14.71.23.23.09.44.21.61.34.17.13.32.29.42.48.11.19.16.41.16.69,0,.26-.06.49-.17.7-.11.21-.27.39-.46.54-.19.15-.42.26-.67.35s-.53.13-.81.13c-.53,0-.99-.1-1.38-.3-.38-.2-.69-.48-.91-.84l.95-.87Z"/>
        <path class="cls-2" d="M14.93,24.48c.13-.35.32-.65.56-.9.24-.25.53-.45.87-.59.33-.14.71-.22,1.12-.22s.77.07,1.1.22c.33.14.62.34.87.59.24.25.43.55.57.9.14.35.2.73.2,1.14s-.07.78-.2,1.13-.33.65-.57.9c-.24.25-.53.45-.87.59-.33.14-.7.21-1.1.21s-.78-.07-1.12-.21c-.33-.14-.62-.34-.87-.59-.24-.25-.43-.55-.56-.9-.13-.35-.2-.72-.2-1.13s.07-.79.2-1.14ZM17.99,26.97c.16-.08.29-.18.41-.31s.2-.28.26-.46.09-.37.09-.57-.03-.4-.09-.59c-.06-.18-.14-.34-.26-.47s-.25-.24-.41-.31c-.16-.08-.34-.12-.53-.12-.18,0-.35.04-.51.12-.16.08-.29.18-.41.31s-.2.28-.26.47c-.06.18-.09.38-.09.59s.03.39.09.58.14.34.26.46c.11.13.25.23.41.31.16.08.34.12.52.12s.36-.04.52-.12Z"/>
        <path class="cls-2" d="M21.14,24.5c.14-.34.33-.65.58-.9.25-.26.54-.46.87-.6.33-.15.7-.22,1.1-.22.26,0,.5.03.74.1s.46.16.66.28c.2.12.38.28.53.46.15.18.29.39.41.62l-1.12.8c-.13-.3-.31-.53-.52-.67-.22-.14-.45-.21-.69-.21-.19,0-.37.04-.53.12-.16.08-.3.18-.41.31-.12.13-.21.28-.27.46s-.09.37-.09.57c0,.22.04.42.1.59s.16.33.27.46.25.23.41.31c.16.07.33.11.51.11.27,0,.51-.08.73-.23.21-.15.39-.36.53-.63l1.1.8c-.22.43-.54.78-.96,1.04-.42.26-.89.39-1.42.39-.4,0-.76-.07-1.1-.22-.34-.15-.63-.35-.87-.6-.24-.26-.43-.56-.56-.9-.14-.34-.2-.72-.2-1.12s.07-.77.2-1.11Z"/>
        <path class="cls-2" d="M27.46,21.97c-.11-.05-.21-.11-.29-.19-.08-.08-.15-.17-.19-.29-.05-.11-.07-.23-.07-.35,0-.13.02-.25.07-.37s.11-.21.19-.28c.08-.08.18-.14.29-.19.11-.05.23-.07.37-.07.12,0,.24.02.35.07.11.05.21.11.29.19.08.08.15.17.2.28.05.11.08.23.08.37,0,.12-.02.24-.07.35-.05.11-.11.21-.2.29-.09.08-.18.14-.3.19-.11.05-.23.08-.35.08-.13,0-.25-.02-.37-.08ZM27.07,28.34v-5.45h1.52v5.45h-1.52Z"/>
        <path class="cls-2" d="M29.82,23.82c.09-.12.22-.24.37-.36.15-.12.32-.24.51-.34s.4-.18.63-.25c.23-.07.47-.1.73-.1.36,0,.7.05.99.15s.56.25.77.44c.22.19.39.43.51.72s.18.63.18,1.02v3.24h-1.43v-.62c-.15.24-.36.42-.62.55-.26.12-.53.19-.82.19-.27,0-.52-.04-.75-.11s-.43-.18-.6-.33c-.17-.15-.3-.32-.4-.53-.09-.21-.14-.43-.14-.68,0-.27.06-.51.17-.72.11-.21.27-.39.47-.53.2-.14.44-.25.7-.33.27-.08.55-.12.85-.12.22,0,.43.02.6.05.18.03.33.07.45.12v-.15c0-.15-.02-.28-.07-.4-.05-.12-.12-.22-.21-.31-.09-.09-.2-.16-.33-.2s-.27-.07-.44-.07c-.28,0-.54.07-.77.2s-.42.28-.55.44l-.81-.97ZM31.41,27.17c.14.11.32.16.54.16.15,0,.3-.03.43-.08.13-.05.24-.13.34-.23.09-.1.17-.21.22-.34.05-.13.08-.27.08-.42-.09-.05-.22-.09-.38-.13-.16-.04-.34-.06-.54-.06-.25,0-.46.05-.64.15-.18.1-.27.26-.27.49,0,.19.07.35.22.45Z"/>
        <path class="cls-2" d="M35.74,24.5c.14-.34.33-.65.58-.9.25-.26.54-.46.87-.6.33-.15.7-.22,1.1-.22.26,0,.5.03.74.1s.46.16.66.28c.2.12.38.28.53.46.15.18.29.39.41.62l-1.12.8c-.13-.3-.31-.53-.52-.67-.22-.14-.45-.21-.69-.21-.19,0-.37.04-.53.12-.16.08-.3.18-.41.31-.12.13-.21.28-.27.46s-.09.37-.09.57c0,.22.04.42.1.59s.16.33.27.46.25.23.41.31c.16.07.33.11.51.11.27,0,.51-.08.73-.23.21-.15.39-.36.53-.63l1.1.8c-.22.43-.54.78-.96,1.04-.42.26-.89.39-1.42.39-.4,0-.76-.07-1.1-.22-.34-.15-.63-.35-.87-.6-.24-.26-.43-.56-.56-.9-.14-.34-.2-.72-.2-1.12s.07-.77.2-1.11Z"/>
        <path class="cls-2" d="M42.07,21.97c-.11-.05-.21-.11-.29-.19-.08-.08-.15-.17-.19-.29-.05-.11-.07-.23-.07-.35,0-.13.02-.25.07-.37s.11-.21.19-.28c.08-.08.18-.14.29-.19.11-.05.23-.07.37-.07.12,0,.24.02.35.07.11.05.21.11.29.19.08.08.15.17.2.28.05.11.08.23.08.37,0,.12-.02.24-.07.35-.05.11-.11.21-.2.29-.09.08-.18.14-.3.19-.11.05-.23.08-.35.08-.13,0-.25-.02-.37-.08ZM41.68,28.34v-5.45h1.52v5.45h-1.52Z"/>
        <path class="cls-2" d="M44.51,24.48c.13-.35.32-.65.56-.9.24-.25.53-.45.87-.59.33-.14.71-.22,1.12-.22s.77.07,1.1.22c.33.14.62.34.87.59.24.25.43.55.57.9.14.35.2.73.2,1.14s-.07.78-.2,1.13-.33.65-.57.9c-.24.25-.53.45-.87.59-.33.14-.7.21-1.1.21s-.78-.07-1.12-.21c-.33-.14-.62-.34-.87-.59-.24-.25-.43-.55-.56-.9-.13-.35-.2-.72-.2-1.13s.07-.79.2-1.14ZM47.58,26.97c.16-.08.29-.18.41-.31s.2-.28.26-.46.09-.37.09-.57-.03-.4-.09-.59c-.06-.18-.14-.34-.26-.47s-.25-.24-.41-.31c-.16-.08-.34-.12-.53-.12-.18,0-.35.04-.51.12-.16.08-.29.18-.41.31s-.2.28-.26.47c-.06.18-.09.38-.09.59s.03.39.09.58.14.34.26.46c.11.13.25.23.41.31.16.08.34.12.52.12s.36-.04.52-.12Z"/>
        <path class="cls-2" d="M50.9,22.89h1.4v.6c.07-.09.15-.17.25-.26.1-.09.21-.16.35-.23.14-.07.29-.12.45-.17.17-.05.35-.07.54-.07.31,0,.59.05.84.16s.46.25.63.42c.17.18.3.4.4.66.09.26.14.55.14.87v3.45h-1.49v-3.05c0-.35-.09-.62-.26-.81-.17-.19-.41-.29-.7-.29-.15,0-.28.02-.41.07s-.23.12-.33.22c-.09.1-.17.21-.22.35s-.08.29-.08.46v3.05h-1.51v-5.45Z"/>
        <path class="cls-2" d="M57.11,24.49c.13-.35.31-.65.53-.9s.51-.46.83-.6.69-.22,1.08-.22c.37,0,.71.07,1.02.21.31.14.57.33.79.56.22.23.38.51.5.83s.17.66.17,1.02c0,.09,0,.19-.01.29,0,.1-.02.2-.05.29h-3.8l.02-.9h2.41c0-.15-.03-.28-.09-.41s-.14-.24-.23-.33c-.1-.09-.21-.16-.33-.21-.12-.05-.26-.08-.41-.08-.2,0-.38.04-.53.13-.16.09-.28.2-.38.34-.1.14-.17.3-.21.49-.05.19-.07.39-.07.59,0,.23.03.44.08.63.05.19.14.35.24.49.11.14.25.24.42.32.17.08.36.12.58.12.26,0,.51-.06.73-.19.23-.13.41-.32.57-.58l.96.84c-.12.2-.26.38-.44.54-.17.16-.37.29-.58.4-.21.1-.43.18-.65.23-.22.05-.45.08-.66.08-.4,0-.76-.07-1.09-.21-.33-.14-.62-.34-.85-.6-.24-.26-.42-.56-.56-.9-.14-.34-.2-.72-.2-1.12s.06-.79.19-1.13Z"/>
        <path class="cls-2" d="M63.71,26.46c.14.23.33.41.56.55s.49.2.77.2c.2,0,.37-.04.51-.12.14-.08.2-.19.2-.32,0-.16-.06-.27-.19-.33s-.34-.13-.62-.2c-.25-.07-.49-.15-.72-.23-.23-.08-.44-.19-.62-.32s-.33-.29-.44-.49-.16-.44-.16-.73c0-.26.05-.49.15-.69.1-.21.24-.38.42-.52.18-.14.39-.26.63-.34.24-.08.5-.12.79-.12.49,0,.91.1,1.25.3.34.2.61.44.81.72l-.88.88c-.12-.19-.29-.35-.49-.46s-.42-.17-.66-.17c-.19,0-.34.04-.46.11-.12.07-.18.18-.18.31,0,.08.02.14.06.19.04.05.1.1.17.14.08.04.17.08.28.12.11.03.24.07.38.11.24.06.48.14.71.23.23.09.44.21.61.34.17.13.32.29.42.48.11.19.16.41.16.69,0,.26-.06.49-.17.7-.11.21-.27.39-.46.54-.19.15-.42.26-.67.35s-.53.13-.81.13c-.53,0-.99-.1-1.38-.3-.38-.2-.69-.48-.91-.84l.95-.87Z"/>
        <path class="cls-2" d="M74.37,27.75c-.16.2-.36.37-.62.51-.26.14-.57.2-.95.2-.35,0-.67-.07-.98-.21-.3-.14-.56-.34-.78-.6-.22-.26-.39-.56-.51-.91s-.19-.73-.19-1.14.06-.79.19-1.13.29-.64.51-.9c.22-.25.48-.45.78-.59s.63-.21.98-.21c.38,0,.7.07.96.2.26.14.47.31.63.52v-3.15h1.51v8h-1.5l-.03-.59ZM73.62,26.98c.15-.08.29-.19.41-.32.12-.13.21-.29.27-.47s.09-.38.09-.59-.03-.4-.09-.58-.15-.33-.27-.46-.26-.24-.41-.31c-.16-.08-.33-.12-.51-.12-.2,0-.38.04-.54.12-.16.08-.3.18-.41.31s-.2.29-.26.47-.09.37-.09.58c0,.22.03.42.09.6s.15.34.26.47.25.24.41.31c.16.08.34.12.54.12.19,0,.36-.04.51-.12Z"/>
        <path class="cls-2" d="M77.19,24.49c.13-.35.31-.65.53-.9s.51-.46.83-.6.69-.22,1.08-.22c.37,0,.71.07,1.02.21.31.14.57.33.79.56.22.23.38.51.5.83s.17.66.17,1.02c0,.09,0,.19-.01.29,0,.1-.02.2-.05.29h-3.8l.02-.9h2.41c0-.15-.03-.28-.09-.41s-.14-.24-.23-.33c-.1-.09-.21-.16-.33-.21-.12-.05-.26-.08-.41-.08-.2,0-.38.04-.53.13-.16.09-.28.2-.38.34-.1.14-.17.3-.21.49-.05.19-.07.39-.07.59,0,.23.03.44.08.63.05.19.14.35.24.49.11.14.25.24.42.32.17.08.36.12.58.12.26,0,.51-.06.73-.19.23-.13.41-.32.57-.58l.96.84c-.12.2-.26.38-.44.54-.17.16-.37.29-.58.4-.21.1-.43.18-.65.23-.22.05-.45.08-.66.08-.4,0-.76-.07-1.09-.21-.33-.14-.62-.34-.85-.6-.24-.26-.42-.56-.56-.9-.14-.34-.2-.72-.2-1.12s.06-.79.19-1.13Z"/>
        <path class="cls-2" d="M85.58,22.91c.19-.48.45-.9.78-1.26.34-.36.73-.64,1.19-.84.46-.2.96-.3,1.5-.3.33,0,.65.04.96.13s.6.21.87.37c.27.16.52.35.74.59.23.23.42.5.59.8l-1.21.86c-.23-.42-.5-.73-.83-.94-.33-.21-.7-.31-1.12-.31-.33,0-.63.06-.9.19s-.49.3-.67.52c-.18.22-.32.48-.42.78-.1.3-.15.63-.15.98s.05.67.15.98c.1.3.25.57.44.79.19.23.42.4.69.53.27.13.56.19.89.19.43,0,.81-.11,1.15-.32.34-.21.63-.52.86-.92l1.16.87c-.15.29-.34.56-.56.79-.23.23-.48.43-.76.59-.28.16-.58.28-.89.36s-.64.12-.97.12c-.54,0-1.04-.1-1.51-.3-.46-.2-.86-.48-1.2-.84-.34-.36-.6-.78-.78-1.27s-.28-1.02-.28-1.58.09-1.08.28-1.56Z"/>
        <path class="cls-2" d="M93.62,21.97c-.11-.05-.21-.11-.29-.19-.08-.08-.15-.17-.19-.29-.05-.11-.07-.23-.07-.35,0-.13.02-.25.07-.37s.11-.21.19-.28c.08-.08.18-.14.29-.19.11-.05.23-.07.37-.07.12,0,.24.02.35.07.11.05.21.11.29.19.08.08.15.17.2.28.05.11.08.23.08.37,0,.12-.02.24-.07.35-.05.11-.11.21-.2.29-.09.08-.18.14-.3.19-.11.05-.23.08-.35.08-.13,0-.25-.02-.37-.08ZM93.23,28.34v-5.45h1.52v5.45h-1.52Z"/>
        <path class="cls-2" d="M96.05,24.49c.13-.35.31-.65.53-.9s.51-.46.83-.6.69-.22,1.08-.22c.37,0,.71.07,1.02.21.31.14.57.33.79.56.22.23.38.51.5.83s.17.66.17,1.02c0,.09,0,.19-.01.29,0,.1-.02.2-.05.29h-3.8l.02-.9h2.41c0-.15-.03-.28-.09-.41s-.14-.24-.23-.33c-.1-.09-.21-.16-.33-.21-.12-.05-.26-.08-.41-.08-.2,0-.38.04-.53.13-.16.09-.28.2-.38.34-.1.14-.17.3-.21.49-.05.19-.07.39-.07.59,0,.23.03.44.08.63.05.19.14.35.24.49.11.14.25.24.42.32.17.08.36.12.58.12.26,0,.51-.06.73-.19.23-.13.41-.32.57-.58l.96.84c-.12.2-.26.38-.44.54-.17.16-.37.29-.58.4-.21.1-.43.18-.65.23-.22.05-.45.08-.66.08-.4,0-.76-.07-1.09-.21-.33-.14-.62-.34-.85-.6-.24-.26-.42-.56-.56-.9-.14-.34-.2-.72-.2-1.12s.06-.79.19-1.13Z"/>
        <path class="cls-2" d="M102.09,22.89h1.4v.6c.07-.09.15-.17.25-.26.1-.09.21-.16.35-.23.14-.07.29-.12.45-.17.17-.05.35-.07.54-.07.31,0,.59.05.84.16s.46.25.63.42c.17.18.3.4.4.66.09.26.14.55.14.87v3.45h-1.49v-3.05c0-.35-.09-.62-.26-.81-.17-.19-.41-.29-.7-.29-.15,0-.28.02-.41.07s-.23.12-.33.22c-.09.1-.17.21-.22.35s-.08.29-.08.46v3.05h-1.51v-5.45Z"/>
        <path class="cls-2" d="M111.67,22.89v1.28h-3.85v-1.28h3.85ZM110.15,24v2.29c0,.28.06.48.19.61.13.13.3.19.53.19.13,0,.28-.02.43-.05.16-.03.3-.09.44-.16l.12,1.29c-.13.08-.32.15-.56.2-.24.06-.48.09-.72.09-.28,0-.53-.04-.77-.12-.23-.08-.43-.2-.6-.36-.17-.16-.3-.37-.4-.61-.09-.24-.14-.53-.14-.85v-2.52h1.48ZM108.68,23.07v-1.92h1.43v1.92h-1.43Z"/>
        <path class="cls-2" d="M112.74,28.34v-5.45h1.51v5.45h-1.51ZM113.76,20.14h1.77l-1.36,1.88h-1.3l.9-1.88Z"/>
        <path class="cls-2" d="M116.04,22.89v-.56c0-.65.18-1.16.54-1.54.36-.37.87-.56,1.52-.56.17,0,.33.02.49.05.16.03.3.07.41.12l-.14,1.24c-.09-.03-.18-.06-.29-.08s-.21-.03-.3-.03c-.14,0-.26.02-.35.05-.1.03-.18.09-.24.17-.07.08-.11.17-.15.29-.03.12-.05.25-.05.41v.44h1.3v1.28h-1.27v4.17h-1.48v-4.17h-.87v-1.28h.87ZM120.06,21.97c-.11-.04-.21-.1-.29-.19s-.15-.18-.2-.29c-.05-.11-.08-.23-.08-.35,0-.13.03-.25.08-.37s.12-.21.2-.29c.08-.08.18-.14.29-.19s.23-.06.37-.06.25.02.36.06.21.1.29.19c.08.08.15.18.2.29.05.11.07.23.07.37,0,.12-.02.24-.07.35-.05.11-.11.21-.2.29-.09.08-.18.14-.29.19-.11.04-.23.06-.36.06s-.25-.02-.37-.06ZM121.17,22.89v5.45h-1.5v-5.45h1.5Z"/>
        <path class="cls-2" d="M122.61,24.5c.14-.34.33-.65.58-.9.25-.26.54-.46.87-.6.33-.15.7-.22,1.1-.22.26,0,.5.03.74.1s.46.16.66.28c.2.12.38.28.53.46.15.18.29.39.41.62l-1.12.8c-.13-.3-.31-.53-.52-.67-.22-.14-.45-.21-.69-.21-.19,0-.37.04-.53.12-.16.08-.3.18-.41.31-.12.13-.21.28-.27.46s-.09.37-.09.57c0,.22.04.42.1.59s.16.33.27.46.25.23.41.31c.16.07.33.11.51.11.27,0,.51-.08.73-.23.21-.15.39-.36.53-.63l1.1.8c-.22.43-.54.78-.96,1.04-.42.26-.89.39-1.42.39-.4,0-.76-.07-1.1-.22-.34-.15-.63-.35-.87-.6-.24-.26-.43-.56-.56-.9-.14-.34-.2-.72-.2-1.12s.07-.77.2-1.11Z"/>
        <path class="cls-2" d="M128.32,24.48c.13-.35.32-.65.56-.9.24-.25.53-.45.87-.59.33-.14.71-.22,1.12-.22s.77.07,1.1.22c.33.14.62.34.87.59.24.25.43.55.57.9.14.35.2.73.2,1.14s-.07.78-.2,1.13-.33.65-.57.9c-.24.25-.53.45-.87.59-.33.14-.7.21-1.1.21s-.78-.07-1.12-.21c-.33-.14-.62-.34-.87-.59-.24-.25-.43-.55-.56-.9-.13-.35-.2-.72-.2-1.13s.07-.79.2-1.14ZM131.38,26.97c.16-.08.29-.18.41-.31s.2-.28.26-.46.09-.37.09-.57-.03-.4-.09-.59c-.06-.18-.14-.34-.26-.47s-.25-.24-.41-.31c-.16-.08-.34-.12-.53-.12-.18,0-.35.04-.51.12-.16.08-.29.18-.41.31s-.2.28-.26.47c-.06.18-.09.38-.09.59s.03.39.09.58.14.34.26.46c.11.13.25.23.41.31.16.08.34.12.52.12s.36-.04.52-.12Z"/>
        <path class="cls-2" d="M135.26,26.46c.14.23.33.41.56.55s.49.2.77.2c.2,0,.37-.04.51-.12.14-.08.2-.19.2-.32,0-.16-.06-.27-.19-.33s-.34-.13-.62-.2c-.25-.07-.49-.15-.72-.23-.23-.08-.44-.19-.62-.32s-.33-.29-.44-.49-.16-.44-.16-.73c0-.26.05-.49.15-.69.1-.21.24-.38.42-.52.18-.14.39-.26.63-.34.24-.08.5-.12.79-.12.49,0,.91.1,1.25.3.34.2.61.44.81.72l-.88.88c-.12-.19-.29-.35-.49-.46s-.42-.17-.66-.17c-.19,0-.34.04-.46.11-.12.07-.18.18-.18.31,0,.08.02.14.06.19.04.05.1.1.17.14.08.04.17.08.28.12.11.03.24.07.38.11.24.06.48.14.71.23.23.09.44.21.61.34.17.13.32.29.42.48.11.19.16.41.16.69,0,.26-.06.49-.17.7-.11.21-.27.39-.46.54-.19.15-.42.26-.67.35s-.53.13-.81.13c-.53,0-.99-.1-1.38-.3-.38-.2-.69-.48-.91-.84l.95-.87Z"/>
        <path class="cls-2" d="M147.59,26.94v1.41h-5.21v-7.71h5.12v1.41h-3.71l.16-.19v5.27l-.16-.19h3.8ZM147.05,23.73v1.35h-3.3v-1.35h3.3Z"/>
        <path class="cls-2" d="M149.28,26.46c.14.23.33.41.56.55s.49.2.77.2c.2,0,.37-.04.51-.12.14-.08.2-.19.2-.32,0-.16-.06-.27-.19-.33s-.34-.13-.62-.2c-.25-.07-.49-.15-.72-.23-.23-.08-.44-.19-.62-.32s-.33-.29-.44-.49-.16-.44-.16-.73c0-.26.05-.49.15-.69.1-.21.24-.38.42-.52.18-.14.39-.26.63-.34.24-.08.5-.12.79-.12.49,0,.91.1,1.25.3.34.2.61.44.81.72l-.88.88c-.12-.19-.29-.35-.49-.46s-.42-.17-.66-.17c-.19,0-.34.04-.46.11-.12.07-.18.18-.18.31,0,.08.02.14.06.19.04.05.1.1.17.14.08.04.17.08.28.12.11.03.24.07.38.11.24.06.48.14.71.23.23.09.44.21.61.34.17.13.32.29.42.48.11.19.16.41.16.69,0,.26-.06.49-.17.7-.11.21-.27.39-.46.54-.19.15-.42.26-.67.35s-.53.13-.81.13c-.53,0-.99-.1-1.38-.3-.38-.2-.69-.48-.91-.84l.95-.87Z"/>
        <path class="cls-2" d="M156.01,28.26c-.26-.14-.46-.3-.63-.51v2.86h-1.51v-7.72h1.5v.63c.17-.22.38-.4.64-.54.26-.14.57-.2.95-.2.36,0,.68.07.98.22s.56.34.77.59c.22.25.39.55.52.91.13.35.19.73.19,1.15s-.06.79-.19,1.13c-.13.34-.3.64-.52.9-.22.25-.47.45-.77.59-.3.14-.63.21-.98.21-.38,0-.7-.07-.95-.2ZM157.2,27c.16-.08.29-.18.41-.31s.2-.29.26-.46.09-.37.09-.58-.03-.4-.09-.58-.14-.34-.26-.48-.25-.24-.41-.32c-.16-.08-.34-.12-.54-.12-.19,0-.36.04-.52.12-.16.08-.3.19-.41.32s-.21.29-.27.47c-.07.18-.1.38-.1.59s.03.39.1.58.16.34.27.48.25.24.41.31.33.11.52.11c.2,0,.38-.04.54-.12Z"/>
        <path class="cls-2" d="M160.28,23.82c.09-.12.22-.24.37-.36.15-.12.32-.24.51-.34s.4-.18.63-.25c.23-.07.47-.1.73-.1.36,0,.7.05.99.15s.56.25.77.44c.22.19.39.43.51.72s.18.63.18,1.02v3.24h-1.43v-.62c-.15.24-.36.42-.62.55-.26.12-.53.19-.82.19-.27,0-.52-.04-.75-.11s-.43-.18-.6-.33c-.17-.15-.3-.32-.4-.53-.09-.21-.14-.43-.14-.68,0-.27.06-.51.17-.72.11-.21.27-.39.47-.53.2-.14.44-.25.7-.33.27-.08.55-.12.85-.12.22,0,.43.02.6.05.18.03.33.07.45.12v-.15c0-.15-.02-.28-.07-.4-.05-.12-.12-.22-.21-.31-.09-.09-.2-.16-.33-.2s-.27-.07-.44-.07c-.28,0-.54.07-.77.2s-.42.28-.55.44l-.81-.97ZM161.87,27.17c.14.11.32.16.54.16.15,0,.3-.03.43-.08.13-.05.24-.13.34-.23.09-.1.17-.21.22-.34.05-.13.08-.27.08-.42-.09-.05-.22-.09-.38-.13-.16-.04-.34-.06-.54-.06-.25,0-.46.05-.64.15-.18.1-.27.26-.27.49,0,.19.07.35.22.45Z"/>
        <path class="cls-2" d="M166.37,22.89h1.4v.6c.07-.09.15-.17.25-.26.1-.09.21-.16.35-.23.14-.07.29-.12.45-.17.17-.05.35-.07.54-.07.31,0,.59.05.84.16s.46.25.63.42c.17.18.3.4.4.66.09.26.14.55.14.87v3.45h-1.49v-3.05c0-.35-.09-.62-.26-.81-.17-.19-.41-.29-.7-.29-.15,0-.28.02-.41.07s-.23.12-.33.22c-.09.1-.17.21-.22.35s-.08.29-.08.46v3.05h-1.51v-5.45ZM167.46,20.53c.24-.17.48-.26.73-.26.17,0,.32.03.44.08.12.05.23.11.33.17s.2.12.3.17c.1.05.21.08.33.08.14,0,.27-.03.38-.09s.23-.18.37-.35l.64.59c-.19.36-.42.63-.67.79-.25.16-.52.24-.8.24-.15,0-.28-.03-.4-.08s-.23-.1-.33-.16-.2-.11-.3-.16c-.1-.05-.2-.08-.3-.08-.14,0-.26.04-.37.1-.1.07-.22.19-.35.36l-.69-.59c.22-.38.44-.65.68-.83Z"/>
        <path class="cls-2" d="M172.6,24.48c.13-.35.32-.65.56-.9.24-.25.53-.45.87-.59.33-.14.71-.22,1.12-.22s.77.07,1.1.22c.33.14.62.34.87.59.24.25.43.55.57.9.14.35.2.73.2,1.14s-.07.78-.2,1.13-.33.65-.57.9c-.24.25-.53.45-.87.59-.33.14-.7.21-1.1.21s-.78-.07-1.12-.21c-.33-.14-.62-.34-.87-.59-.24-.25-.43-.55-.56-.9-.13-.35-.2-.72-.2-1.13s.07-.79.2-1.14ZM175.67,26.97c.16-.08.29-.18.41-.31s.2-.28.26-.46.09-.37.09-.57-.03-.4-.09-.59c-.06-.18-.14-.34-.26-.47s-.25-.24-.41-.31c-.16-.08-.34-.12-.53-.12-.18,0-.35.04-.51.12-.16.08-.29.18-.41.31s-.2.28-.26.47c-.06.18-.09.38-.09.59s.03.39.09.58.14.34.26.46c.11.13.25.23.41.31.16.08.34.12.52.12s.36-.04.52-.12Z"/>
        <path class="cls-2" d="M178.99,20.35h1.51v8h-1.51v-8Z"/>
        <path class="cls-2" d="M181.78,24.49c.13-.35.31-.65.53-.9s.51-.46.83-.6.69-.22,1.08-.22c.37,0,.71.07,1.02.21.31.14.57.33.79.56.22.23.38.51.5.83s.17.66.17,1.02c0,.09,0,.19-.01.29,0,.1-.02.2-.05.29h-3.8l.02-.9h2.41c0-.15-.03-.28-.09-.41s-.14-.24-.23-.33c-.1-.09-.21-.16-.33-.21-.12-.05-.26-.08-.41-.08-.2,0-.38.04-.53.13-.16.09-.28.2-.38.34-.1.14-.17.3-.21.49-.05.19-.07.39-.07.59,0,.23.03.44.08.63.05.19.14.35.24.49.11.14.25.24.42.32.17.08.36.12.58.12.26,0,.51-.06.73-.19.23-.13.41-.32.57-.58l.96.84c-.12.2-.26.38-.44.54-.17.16-.37.29-.58.4-.21.1-.43.18-.65.23-.22.05-.45.08-.66.08-.4,0-.76-.07-1.09-.21-.33-.14-.62-.34-.85-.6-.24-.26-.42-.56-.56-.9-.14-.34-.2-.72-.2-1.12s.06-.79.19-1.13Z"/>
        <path class="cls-2" d="M188.38,26.46c.14.23.33.41.56.55s.49.2.77.2c.2,0,.37-.04.51-.12.14-.08.2-.19.2-.32,0-.16-.06-.27-.19-.33s-.34-.13-.62-.2c-.25-.07-.49-.15-.72-.23-.23-.08-.44-.19-.62-.32s-.33-.29-.44-.49-.16-.44-.16-.73c0-.26.05-.49.15-.69.1-.21.24-.38.42-.52.18-.14.39-.26.63-.34.24-.08.5-.12.79-.12.49,0,.91.1,1.25.3.34.2.61.44.81.72l-.88.88c-.12-.19-.29-.35-.49-.46s-.42-.17-.66-.17c-.19,0-.34.04-.46.11-.12.07-.18.18-.18.31,0,.08.02.14.06.19.04.05.1.1.17.14.08.04.17.08.28.12.11.03.24.07.38.11.24.06.48.14.71.23.23.09.44.21.61.34.17.13.32.29.42.48.11.19.16.41.16.69,0,.26-.06.49-.17.7-.11.21-.27.39-.46.54-.19.15-.42.26-.67.35s-.53.13-.81.13c-.53,0-.99-.1-1.38-.3-.38-.2-.69-.48-.91-.84l.95-.87Z"/>
        <path class="cls-2" d="M2.23,38.31c.13-.35.31-.65.53-.9s.51-.46.83-.6.69-.22,1.08-.22c.37,0,.71.07,1.02.21.31.14.57.33.79.56.22.23.38.51.5.83s.17.66.17,1.02c0,.09,0,.19-.01.29,0,.1-.02.2-.05.29h-3.8l.02-.9h2.41c0-.15-.03-.28-.09-.41s-.14-.24-.23-.33c-.1-.09-.21-.16-.33-.21-.12-.05-.26-.08-.41-.08-.2,0-.38.04-.53.13-.16.09-.28.2-.38.34-.1.14-.17.3-.21.49-.05.19-.07.39-.07.59,0,.23.03.44.08.63.05.19.14.35.24.49.11.14.25.24.42.32.17.08.36.12.58.12.26,0,.51-.06.73-.19.23-.13.41-.32.57-.58l.96.84c-.12.2-.26.38-.44.54-.17.16-.37.29-.58.4-.21.1-.43.18-.65.23-.22.05-.45.08-.66.08-.4,0-.76-.07-1.09-.21-.33-.14-.62-.34-.85-.6-.24-.26-.42-.56-.56-.9-.14-.34-.2-.72-.2-1.12s.06-.79.19-1.13Z"/>
        <path class="cls-2" d="M8.28,36.71h1.4v.6c.07-.09.15-.17.25-.26.1-.09.21-.16.35-.23.14-.07.29-.12.45-.17.17-.05.35-.07.54-.07.31,0,.59.05.84.16s.46.25.63.42c.17.18.3.4.4.66.09.26.14.55.14.87v3.45h-1.49v-3.05c0-.35-.09-.62-.26-.81-.17-.19-.41-.29-.7-.29-.15,0-.28.02-.41.07s-.23.12-.33.22c-.09.1-.17.21-.22.35s-.08.29-.08.46v3.05h-1.51v-5.45Z"/>
        <path class="cls-2" d="M17.92,39.72c.19.38.44.66.74.85s.66.28,1.08.28c.16,0,.31-.02.45-.06.14-.04.26-.09.37-.17.11-.07.19-.16.25-.27.06-.11.09-.22.09-.34,0-.13-.03-.25-.09-.35-.06-.1-.15-.19-.26-.26-.11-.07-.26-.15-.44-.22-.18-.07-.38-.15-.62-.23-.33-.12-.65-.24-.95-.37s-.56-.28-.79-.45-.41-.39-.54-.64-.2-.56-.2-.91.07-.67.22-.95c.14-.28.34-.52.59-.71.25-.19.52-.34.83-.44.31-.1.63-.15.96-.15s.63.04.91.12c.28.08.53.19.75.33.22.14.41.3.58.49.17.19.31.4.42.63l-1.14.85c-.14-.29-.34-.52-.61-.72-.27-.19-.58-.28-.94-.28-.12,0-.25.02-.37.05-.12.04-.23.09-.33.15-.1.07-.17.15-.23.25-.06.1-.09.22-.09.35,0,.16.04.29.12.4.08.1.19.19.31.27.13.08.27.15.42.2.15.06.3.11.44.15.36.13.69.26,1.01.39s.59.28.82.47.41.4.54.66.2.57.2.94-.08.7-.24.98c-.16.28-.37.52-.62.7s-.54.33-.87.42c-.32.1-.64.15-.96.15-.36,0-.69-.04-.99-.12s-.59-.2-.84-.34c-.25-.15-.47-.33-.67-.54-.19-.21-.35-.45-.48-.7l1.15-.85Z"/>
        <path class="cls-2" d="M27.1,42.16l-.02-.6c-.06.09-.14.17-.24.26-.1.09-.21.17-.34.23s-.27.12-.44.16-.35.06-.55.06c-.32,0-.6-.05-.85-.16-.25-.1-.46-.25-.62-.43-.17-.18-.3-.4-.39-.66-.09-.26-.14-.54-.14-.85v-3.46h1.52v3.05c0,.35.08.62.24.81.16.19.39.28.69.28.15,0,.29-.02.41-.08.13-.05.24-.12.33-.22.09-.09.17-.21.22-.34s.08-.29.08-.46v-3.05h1.49v5.45h-1.41Z"/>
        <path class="cls-2" d="M29.8,38.31c.13-.35.31-.65.53-.9s.51-.46.83-.6.69-.22,1.08-.22c.37,0,.71.07,1.02.21.31.14.57.33.79.56.22.23.38.51.5.83s.17.66.17,1.02c0,.09,0,.19-.01.29,0,.1-.02.2-.05.29h-3.8l.02-.9h2.41c0-.15-.03-.28-.09-.41s-.14-.24-.23-.33c-.1-.09-.21-.16-.33-.21-.12-.05-.26-.08-.41-.08-.2,0-.38.04-.53.13-.16.09-.28.2-.38.34-.1.14-.17.3-.21.49-.05.19-.07.39-.07.59,0,.23.03.44.08.63.05.19.14.35.24.49.11.14.25.24.42.32.17.08.36.12.58.12.26,0,.51-.06.73-.19.23-.13.41-.32.57-.58l.96.84c-.12.2-.26.38-.44.54-.17.16-.37.29-.58.4-.21.1-.43.18-.65.23-.22.05-.45.08-.66.08-.4,0-.76-.07-1.09-.21-.33-.14-.62-.34-.85-.6-.24-.26-.42-.56-.56-.9-.14-.34-.2-.72-.2-1.12s.06-.79.19-1.13Z"/>
        <path class="cls-2" d="M35.67,38.32c.14-.34.33-.65.58-.9.25-.26.54-.46.87-.6.33-.15.7-.22,1.1-.22.26,0,.5.03.74.1s.46.16.66.28c.2.12.38.28.53.46.15.18.29.39.41.62l-1.12.8c-.13-.3-.31-.53-.52-.67-.22-.14-.45-.21-.69-.21-.19,0-.37.04-.53.12-.16.08-.3.18-.41.31-.12.13-.21.28-.27.46s-.09.37-.09.57c0,.22.04.42.1.59s.16.33.27.46.25.23.41.31c.16.07.33.11.51.11.27,0,.51-.08.73-.23.21-.15.39-.36.53-.63l1.1.8c-.22.43-.54.78-.96,1.04-.42.26-.89.39-1.42.39-.4,0-.76-.07-1.1-.22-.34-.15-.63-.35-.87-.6-.24-.26-.43-.56-.56-.9-.14-.34-.2-.72-.2-1.12s.07-.77.2-1.11Z"/>
        <path class="cls-2" d="M42,35.78c-.11-.05-.21-.11-.29-.19-.08-.08-.15-.17-.19-.29-.05-.11-.07-.23-.07-.35,0-.13.02-.25.07-.37s.11-.21.19-.28c.08-.08.18-.14.29-.19.11-.05.23-.07.37-.07.12,0,.24.02.35.07.11.05.21.11.29.19.08.08.15.17.2.28.05.11.08.23.08.37,0,.12-.02.24-.07.35-.05.11-.11.21-.2.29-.09.08-.18.14-.3.19-.11.05-.23.08-.35.08-.13,0-.25-.02-.37-.08ZM41.61,42.16v-5.45h1.52v5.45h-1.52Z"/>
        <path class="cls-2" d="M44.35,37.64c.09-.12.22-.24.37-.36.15-.12.32-.24.51-.34s.4-.18.63-.25c.23-.07.47-.1.73-.1.36,0,.7.05.99.15s.56.25.77.44c.22.19.39.43.51.72s.18.63.18,1.02v3.24h-1.43v-.62c-.15.24-.36.42-.62.55-.26.12-.53.19-.82.19-.27,0-.52-.04-.75-.11s-.43-.18-.6-.33c-.17-.15-.3-.32-.4-.53-.09-.21-.14-.43-.14-.68,0-.27.06-.51.17-.72.11-.21.27-.39.47-.53.2-.14.44-.25.7-.33.27-.08.55-.12.85-.12.22,0,.43.02.6.05.18.03.33.07.45.12v-.15c0-.15-.02-.28-.07-.4-.05-.12-.12-.22-.21-.31-.09-.09-.2-.16-.33-.2s-.27-.07-.44-.07c-.28,0-.54.07-.77.2s-.42.28-.55.44l-.81-.97ZM45.94,40.99c.14.11.32.16.54.16.15,0,.3-.03.43-.08.13-.05.24-.13.34-.23.09-.1.17-.21.22-.34.05-.13.08-.27.08-.42-.09-.05-.22-.09-.38-.13-.16-.04-.34-.06-.54-.06-.25,0-.46.05-.64.15-.18.1-.27.26-.27.49,0,.19.07.35.22.45Z"/>
        <path class="cls-2" d="M54.33,44.43c-.24-.31-.47-.67-.69-1.08-.22-.41-.41-.85-.57-1.32-.16-.47-.29-.98-.39-1.51-.1-.54-.15-1.09-.15-1.65s.05-1.13.14-1.64c.09-.51.22-1,.38-1.46.16-.46.35-.9.57-1.3.22-.41.45-.8.7-1.17h1.46c-.15.23-.33.53-.52.9s-.37.79-.55,1.27c-.17.48-.32,1.01-.44,1.58s-.18,1.18-.18,1.82.06,1.25.19,1.82c.12.57.27,1.09.44,1.56.17.47.35.9.55,1.27.19.37.37.67.52.91h-1.48Z"/>
        <path class="cls-2" d="M58.64,34.45h1.8l2.88,7.71h-1.69l-.62-1.69.23.17h-3.43l.23-.17-.6,1.69h-1.69l2.87-7.71ZM58.23,39.35h2.65l-.13.17-1.29-3.52h.15l-1.28,3.52-.1-.17Z"/>
        <path class="cls-2" d="M63.78,36.73c.19-.48.45-.9.78-1.26.34-.36.73-.64,1.19-.84.46-.2.96-.3,1.5-.3.33,0,.65.04.96.13s.6.21.87.37c.27.16.52.35.74.59.23.23.42.5.59.8l-1.21.86c-.23-.42-.5-.73-.83-.94-.33-.21-.7-.31-1.12-.31-.33,0-.63.06-.9.19s-.49.3-.67.52c-.18.22-.32.48-.42.78-.1.3-.15.63-.15.98s.05.67.15.98c.1.3.25.57.44.79.19.23.42.4.69.53.27.13.56.19.89.19.43,0,.81-.11,1.15-.32.34-.21.63-.52.86-.92l1.16.87c-.15.29-.34.56-.56.79-.23.23-.48.43-.76.59-.28.16-.58.28-.89.36s-.64.12-.97.12c-.54,0-1.04-.1-1.51-.3-.46-.2-.86-.48-1.2-.84-.34-.36-.6-.78-.78-1.27s-.28-1.02-.28-1.58.09-1.08.28-1.56Z"/>
        <path class="cls-2" d="M76.74,40.75v1.41h-5.21v-7.71h5.12v1.41h-3.71l.16-.19v5.27l-.16-.19h3.8ZM76.2,37.54v1.35h-3.3v-1.35h3.3Z"/>
        <path class="cls-2" d="M78.72,39.72c.19.38.44.66.74.85s.66.28,1.08.28c.16,0,.31-.02.45-.06.14-.04.26-.09.37-.17.11-.07.19-.16.25-.27.06-.11.09-.22.09-.34,0-.13-.03-.25-.09-.35-.06-.1-.15-.19-.26-.26-.11-.07-.26-.15-.44-.22-.18-.07-.38-.15-.62-.23-.33-.12-.65-.24-.95-.37s-.56-.28-.79-.45-.41-.39-.54-.64-.2-.56-.2-.91.07-.67.22-.95c.14-.28.34-.52.59-.71.25-.19.52-.34.83-.44.31-.1.63-.15.96-.15s.63.04.91.12c.28.08.53.19.75.33.22.14.41.3.58.49.17.19.31.4.42.63l-1.14.85c-.14-.29-.34-.52-.61-.72-.27-.19-.58-.28-.94-.28-.12,0-.25.02-.37.05-.12.04-.23.09-.33.15-.1.07-.17.15-.23.25-.06.1-.09.22-.09.35,0,.16.04.29.12.4.08.1.19.19.31.27.13.08.27.15.42.2.15.06.3.11.44.15.36.13.69.26,1.01.39s.59.28.82.47.41.4.54.66.2.57.2.94-.08.7-.24.98c-.16.28-.37.52-.62.7s-.54.33-.87.42c-.32.1-.64.15-.96.15-.36,0-.69-.04-.99-.12s-.59-.2-.84-.34c-.25-.15-.47-.33-.67-.54-.19-.21-.35-.45-.48-.7l1.15-.85Z"/>
        <path class="cls-2" d="M83.42,44.43c.16-.23.33-.53.53-.91s.38-.79.55-1.27c.17-.47.32-.99.44-1.56.12-.57.19-1.18.19-1.82s-.06-1.25-.18-1.82c-.12-.57-.27-1.09-.44-1.58-.17-.48-.36-.9-.55-1.27-.19-.37-.36-.67-.51-.9h1.45c.24.37.47.76.69,1.16s.41.83.57,1.29c.16.46.28.95.38,1.46.09.52.14,1.07.14,1.65s-.05,1.1-.15,1.64c-.1.53-.23,1.04-.39,1.51s-.35.91-.56,1.33c-.21.41-.44.77-.68,1.08h-1.49Z"/>
        <path class="cls-2" d="M87.97,40.72h1.55l-1.02,2.93h-1.29l.77-2.93Z"/>
        <path class="cls-2" d="M93.02,34.45h5.16v1.41h-3.74l.17-.19v6.49h-1.59v-7.71ZM97.4,37.58v1.4h-3v-1.4h3Z"/>
        <path class="cls-2" d="M99.58,35.78c-.11-.05-.21-.11-.29-.19-.08-.08-.15-.17-.19-.29-.05-.11-.07-.23-.07-.35,0-.13.02-.25.07-.37s.11-.21.19-.28c.08-.08.18-.14.29-.19.11-.05.23-.07.37-.07.12,0,.24.02.35.07.11.05.21.11.29.19.08.08.15.17.2.28.05.11.08.23.08.37,0,.12-.02.24-.07.35-.05.11-.11.21-.2.29-.09.08-.18.14-.3.19-.11.05-.23.08-.35.08-.13,0-.25-.02-.37-.08ZM99.19,42.16v-5.45h1.52v5.45h-1.52Z"/>
        <path class="cls-2" d="M102.19,36.71h1.4v.6c.07-.09.15-.17.25-.26.1-.09.21-.16.35-.23.14-.07.29-.12.45-.17.17-.05.35-.07.54-.07.31,0,.59.05.84.16s.46.25.63.42c.17.18.3.4.4.66.09.26.14.55.14.87v3.45h-1.49v-3.05c0-.35-.09-.62-.26-.81-.17-.19-.41-.29-.7-.29-.15,0-.28.02-.41.07s-.23.12-.33.22c-.09.1-.17.21-.22.35s-.08.29-.08.46v3.05h-1.51v-5.45Z"/>
        <path class="cls-2" d="M108.59,34.16h1.51v8h-1.51v-8Z"/>
        <path class="cls-2" d="M111.31,37.64c.09-.12.22-.24.37-.36.15-.12.32-.24.51-.34s.4-.18.63-.25c.23-.07.47-.1.73-.1.36,0,.7.05.99.15s.56.25.77.44c.22.19.39.43.51.72s.18.63.18,1.02v3.24h-1.43v-.62c-.15.24-.36.42-.62.55-.26.12-.53.19-.82.19-.27,0-.52-.04-.75-.11s-.43-.18-.6-.33c-.17-.15-.3-.32-.4-.53-.09-.21-.14-.43-.14-.68,0-.27.06-.51.17-.72.11-.21.27-.39.47-.53.2-.14.44-.25.7-.33.27-.08.55-.12.85-.12.22,0,.43.02.6.05.18.03.33.07.45.12v-.15c0-.15-.02-.28-.07-.4-.05-.12-.12-.22-.21-.31-.09-.09-.2-.16-.33-.2s-.27-.07-.44-.07c-.28,0-.54.07-.77.2s-.42.28-.55.44l-.81-.97ZM112.9,40.99c.14.11.32.16.54.16.15,0,.3-.03.43-.08.13-.05.24-.13.34-.23.09-.1.17-.21.22-.34.05-.13.08-.27.08-.42-.09-.05-.22-.09-.38-.13-.16-.04-.34-.06-.54-.06-.25,0-.46.05-.64.15-.18.1-.27.26-.27.49,0,.19.07.35.22.45Z"/>
        <path class="cls-2" d="M117.4,36.71h1.4v.6c.07-.09.15-.17.25-.26.1-.09.21-.16.35-.23.14-.07.29-.12.45-.17.17-.05.35-.07.54-.07.31,0,.59.05.84.16s.46.25.63.42c.17.18.3.4.4.66.09.26.14.55.14.87v3.45h-1.49v-3.05c0-.35-.09-.62-.26-.81-.17-.19-.41-.29-.7-.29-.15,0-.28.02-.41.07s-.23.12-.33.22c-.09.1-.17.21-.22.35s-.08.29-.08.46v3.05h-1.51v-5.45Z"/>
        <path class="cls-2" d="M127.46,41.57c-.16.2-.36.37-.62.51-.26.14-.57.2-.95.2-.35,0-.67-.07-.98-.21-.3-.14-.56-.34-.78-.6-.22-.26-.39-.56-.51-.91s-.19-.73-.19-1.14.06-.79.19-1.13.29-.64.51-.9c.22-.25.48-.45.78-.59s.63-.21.98-.21c.38,0,.7.07.96.2.26.14.47.31.63.52v-3.15h1.51v8h-1.5l-.03-.59ZM126.7,40.79c.15-.08.29-.19.41-.32.12-.13.21-.29.27-.47s.09-.38.09-.59-.03-.4-.09-.58-.15-.33-.27-.46-.26-.24-.41-.31c-.16-.08-.33-.12-.51-.12-.2,0-.38.04-.54.12-.16.08-.3.18-.41.31s-.2.29-.26.47-.09.37-.09.58c0,.22.03.42.09.6s.15.34.26.47.25.24.41.31c.16.08.34.12.54.12.19,0,.36-.04.51-.12Z"/>
        <path class="cls-2" d="M130.87,35.78c-.11-.05-.21-.11-.29-.19-.08-.08-.15-.17-.19-.29-.05-.11-.07-.23-.07-.35,0-.13.02-.25.07-.37s.11-.21.19-.28c.08-.08.18-.14.29-.19.11-.05.23-.07.37-.07.12,0,.24.02.35.07.11.05.21.11.29.19.08.08.15.17.2.28.05.11.08.23.08.37,0,.12-.02.24-.07.35-.05.11-.11.21-.2.29-.09.08-.18.14-.3.19-.11.05-.23.08-.35.08-.13,0-.25-.02-.37-.08ZM130.48,42.16v-5.45h1.52v5.45h-1.52Z"/>
        <path class="cls-2" d="M133.22,37.64c.09-.12.22-.24.37-.36.15-.12.32-.24.51-.34s.4-.18.63-.25c.23-.07.47-.1.73-.1.36,0,.7.05.99.15s.56.25.77.44c.22.19.39.43.51.72s.18.63.18,1.02v3.24h-1.43v-.62c-.15.24-.36.42-.62.55-.26.12-.53.19-.82.19-.27,0-.52-.04-.75-.11s-.43-.18-.6-.33c-.17-.15-.3-.32-.4-.53-.09-.21-.14-.43-.14-.68,0-.27.06-.51.17-.72.11-.21.27-.39.47-.53.2-.14.44-.25.7-.33.27-.08.55-.12.85-.12.22,0,.43.02.6.05.18.03.33.07.45.12v-.15c0-.15-.02-.28-.07-.4-.05-.12-.12-.22-.21-.31-.09-.09-.2-.16-.33-.2s-.27-.07-.44-.07c-.28,0-.54.07-.77.2s-.42.28-.55.44l-.81-.97ZM134.81,40.99c.14.11.32.16.54.16.15,0,.3-.03.43-.08.13-.05.24-.13.34-.23.09-.1.17-.21.22-.34.05-.13.08-.27.08-.42-.09-.05-.22-.09-.38-.13-.16-.04-.34-.06-.54-.06-.25,0-.46.05-.64.15-.18.1-.27.26-.27.49,0,.19.07.35.22.45Z"/>
        <path class="cls-2" d="M143.2,44.43c-.24-.31-.47-.67-.69-1.08-.22-.41-.41-.85-.57-1.32-.16-.47-.29-.98-.39-1.51-.1-.54-.15-1.09-.15-1.65s.05-1.13.14-1.64c.09-.51.22-1,.38-1.46.16-.46.35-.9.57-1.3.22-.41.45-.8.7-1.17h1.46c-.15.23-.33.53-.52.9s-.37.79-.55,1.27c-.17.48-.32,1.01-.44,1.58s-.18,1.18-.18,1.82.06,1.25.19,1.82c.12.57.27,1.09.44,1.56.17.47.35.9.55,1.27.19.37.37.67.52.91h-1.48Z"/>
        <path class="cls-2" d="M147.51,34.45h1.8l2.88,7.71h-1.69l-.62-1.69.23.17h-3.43l.23-.17-.6,1.69h-1.69l2.87-7.71ZM147.11,39.35h2.65l-.13.17-1.29-3.52h.15l-1.28,3.52-.1-.17Z"/>
        <path class="cls-2" d="M152.65,36.73c.19-.48.45-.9.78-1.26.34-.36.73-.64,1.19-.84.46-.2.96-.3,1.5-.3.33,0,.65.04.96.13s.6.21.87.37c.27.16.52.35.74.59.23.23.42.5.59.8l-1.21.86c-.23-.42-.5-.73-.83-.94-.33-.21-.7-.31-1.12-.31-.33,0-.63.06-.9.19s-.49.3-.67.52c-.18.22-.32.48-.42.78-.1.3-.15.63-.15.98s.05.67.15.98c.1.3.25.57.44.79.19.23.42.4.69.53.27.13.56.19.89.19.43,0,.81-.11,1.15-.32.34-.21.63-.52.86-.92l1.16.87c-.15.29-.34.56-.56.79-.23.23-.48.43-.76.59-.28.16-.58.28-.89.36s-.64.12-.97.12c-.54,0-1.04-.1-1.51-.3-.46-.2-.86-.48-1.2-.84-.34-.36-.6-.78-.78-1.27s-.28-1.02-.28-1.58.09-1.08.28-1.56Z"/>
        <path class="cls-2" d="M165.62,40.75v1.41h-5.21v-7.71h5.12v1.41h-3.71l.16-.19v5.27l-.16-.19h3.8ZM165.07,37.54v1.35h-3.3v-1.35h3.3Z"/>
        <path class="cls-2" d="M166.86,34.45h5.16v1.41h-3.74l.17-.19v6.49h-1.59v-7.71ZM171.24,37.58v1.4h-3v-1.4h3Z"/>
        <path class="cls-2" d="M173.14,34.45h1.57v7.71h-1.57v-7.71Z"/>
        <path class="cls-2" d="M175.54,44.43c.16-.23.33-.53.53-.91s.38-.79.55-1.27c.17-.47.32-.99.44-1.56.12-.57.19-1.18.19-1.82s-.06-1.25-.18-1.82c-.12-.57-.27-1.09-.44-1.58-.17-.48-.36-.9-.55-1.27-.19-.37-.36-.67-.51-.9h1.45c.24.37.47.76.69,1.16s.41.83.57,1.29c.16.46.28.95.38,1.46.09.52.14,1.07.14,1.65s-.05,1.1-.15,1.64c-.1.53-.23,1.04-.39,1.51s-.35.91-.56,1.33c-.21.41-.44.77-.68,1.08h-1.49Z"/>
        <path class="cls-2" d="M1.74,50.52h1.59l1.36,3.98h-.14l1.34-3.98h1.59l-2.34,6.14c-.1.26-.21.5-.34.71-.12.21-.27.39-.44.54-.17.15-.37.26-.59.34-.23.08-.49.12-.79.12-.25,0-.47-.03-.65-.09s-.32-.11-.4-.17l.17-1.22c.09.04.19.08.31.12.12.04.24.06.37.06.17,0,.32-.03.44-.08s.22-.13.3-.22c.08-.09.15-.21.21-.34s.11-.27.16-.42l-2.15-5.48Z"/>
        <path class="cls-2" d="M10.59,48.27h3.02c.53,0,1.01.1,1.46.29.45.19.83.47,1.16.81.33.35.58.76.77,1.23.19.47.28.98.28,1.53s-.09,1.05-.28,1.52-.44.88-.77,1.23c-.33.35-.71.62-1.16.81s-.93.29-1.46.29h-3.02v-7.71ZM13.53,54.58c.32,0,.61-.07.87-.2s.49-.31.67-.53c.18-.22.33-.48.44-.77s.16-.61.16-.95-.05-.66-.16-.96-.25-.56-.43-.78-.41-.4-.67-.53c-.26-.13-.55-.19-.87-.19h-1.58l.2-.22v5.36l-.2-.22h1.57Z"/>
        <path class="cls-2" d="M18.81,49.6c-.11-.05-.21-.11-.29-.19-.08-.08-.15-.17-.19-.29-.05-.11-.07-.23-.07-.35,0-.13.02-.25.07-.37s.11-.21.19-.28c.08-.08.18-.14.29-.19.11-.05.23-.07.37-.07.12,0,.24.02.35.07.11.05.21.11.29.19.08.08.15.17.2.28.05.11.08.23.08.37,0,.12-.02.24-.07.35-.05.11-.11.21-.2.29-.09.08-.18.14-.3.19-.11.05-.23.08-.35.08-.13,0-.25-.02-.37-.08ZM18.42,55.97v-5.45h1.52v5.45h-1.52Z"/>
        <path class="cls-2" d="M21.42,50.52h1.4v.6c.07-.09.15-.17.25-.26.1-.09.21-.16.35-.23.14-.07.29-.12.45-.17.17-.05.35-.07.54-.07.31,0,.59.05.84.16s.46.25.63.42c.17.18.3.4.4.66.09.26.14.55.14.87v3.45h-1.49v-3.05c0-.35-.09-.62-.26-.81-.17-.19-.41-.29-.7-.29-.15,0-.28.02-.41.07s-.23.12-.33.22c-.09.1-.17.21-.22.35s-.08.29-.08.46v3.05h-1.51v-5.45Z"/>
        <path class="cls-2" d="M27.56,51.45c.09-.12.22-.24.37-.36.15-.12.32-.24.51-.34s.4-.18.63-.25c.23-.07.47-.1.73-.1.36,0,.7.05.99.15s.56.25.77.44c.22.19.39.43.51.72s.18.63.18,1.02v3.24h-1.43v-.62c-.15.24-.36.42-.62.55-.26.12-.53.19-.82.19-.27,0-.52-.04-.75-.11s-.43-.18-.6-.33c-.17-.15-.3-.32-.4-.53-.09-.21-.14-.43-.14-.68,0-.27.06-.51.17-.72.11-.21.27-.39.47-.53.2-.14.44-.25.7-.33.27-.08.55-.12.85-.12.22,0,.43.02.6.05.18.03.33.07.45.12v-.15c0-.15-.02-.28-.07-.4-.05-.12-.12-.22-.21-.31-.09-.09-.2-.16-.33-.2s-.27-.07-.44-.07c-.28,0-.54.07-.77.2s-.42.28-.55.44l-.81-.97ZM29.15,54.8c.14.11.32.16.54.16.15,0,.3-.03.43-.08.13-.05.24-.13.34-.23.09-.1.17-.21.22-.34.05-.13.08-.27.08-.42-.09-.05-.22-.09-.38-.13-.16-.04-.34-.06-.54-.06-.25,0-.46.05-.64.15-.18.1-.27.26-.27.49,0,.19.07.35.22.45Z"/>
        <path class="cls-2" d="M33.66,55.97v-5.45h1.42l.04.6c.08-.1.17-.2.27-.29.1-.09.22-.16.35-.23s.27-.11.42-.15c.15-.04.31-.06.47-.06.37,0,.71.08,1.01.24.3.16.52.39.65.69.19-.29.43-.51.74-.68.31-.17.64-.25.99-.25.29,0,.55.05.79.14.24.09.45.23.63.41.18.18.32.41.42.67.1.26.15.56.15.9v3.45h-1.5v-3.05c0-.35-.08-.62-.24-.81-.16-.19-.39-.29-.69-.29-.14,0-.27.02-.39.07s-.23.12-.32.21-.16.2-.21.33c-.05.13-.08.28-.09.45v3.08h-1.48v-3.05c0-.35-.09-.62-.26-.81s-.39-.29-.66-.29c-.15,0-.28.02-.4.07s-.23.12-.33.22c-.1.1-.17.21-.22.35s-.08.29-.08.46v3.05h-1.51Z"/>
        <path class="cls-2" d="M43.17,51.45c.09-.12.22-.24.37-.36.15-.12.32-.24.51-.34s.4-.18.63-.25c.23-.07.47-.1.73-.1.36,0,.7.05.99.15s.56.25.77.44c.22.19.39.43.51.72s.18.63.18,1.02v3.24h-1.43v-.62c-.15.24-.36.42-.62.55-.26.12-.53.19-.82.19-.27,0-.52-.04-.75-.11s-.43-.18-.6-.33c-.17-.15-.3-.32-.4-.53-.09-.21-.14-.43-.14-.68,0-.27.06-.51.17-.72.11-.21.27-.39.47-.53.2-.14.44-.25.7-.33.27-.08.55-.12.85-.12.22,0,.43.02.6.05.18.03.33.07.45.12v-.15c0-.15-.02-.28-.07-.4-.05-.12-.12-.22-.21-.31-.09-.09-.2-.16-.33-.2s-.27-.07-.44-.07c-.28,0-.54.07-.77.2s-.42.28-.55.44l-.81-.97ZM44.75,54.8c.14.11.32.16.54.16.15,0,.3-.03.43-.08.13-.05.24-.13.34-.23.09-.1.17-.21.22-.34.05-.13.08-.27.08-.42-.09-.05-.22-.09-.38-.13-.16-.04-.34-.06-.54-.06-.25,0-.46.05-.64.15-.18.1-.27.26-.27.49,0,.19.07.35.22.45Z"/>
        <path class="cls-2" d="M49.26,50.52h1.43l.02.71c.12-.26.31-.47.55-.61s.5-.22.77-.22c.09,0,.21,0,.34.03.14.02.25.06.34.11l-.14,1.37c-.08-.05-.17-.09-.28-.11-.11-.02-.23-.03-.34-.03-.16,0-.32.03-.46.09-.14.06-.27.14-.37.26s-.19.26-.26.44c-.07.18-.1.41-.1.67v2.74h-1.51v-5.45Z"/>
        <path class="cls-2" d="M53.18,52.13c.14-.34.33-.65.58-.9.25-.26.54-.46.87-.6.33-.15.7-.22,1.1-.22.26,0,.5.03.74.1s.46.16.66.28c.2.12.38.28.53.46.15.18.29.39.41.62l-1.12.8c-.13-.3-.31-.53-.52-.67-.22-.14-.45-.21-.69-.21-.19,0-.37.04-.53.12-.16.08-.3.18-.41.31-.12.13-.21.28-.27.46s-.09.37-.09.57c0,.22.04.42.1.59s.16.33.27.46.25.23.41.31c.16.07.33.11.51.11.27,0,.51-.08.73-.23.21-.15.39-.36.53-.63l1.1.8c-.22.43-.54.78-.96,1.04-.42.26-.89.39-1.42.39-.4,0-.76-.07-1.1-.22-.34-.15-.63-.35-.87-.6-.24-.26-.43-.56-.56-.9-.14-.34-.2-.72-.2-1.12s.07-.77.2-1.11Z"/>
        <path class="cls-2" d="M58.84,51.45c.09-.12.22-.24.37-.36.15-.12.32-.24.51-.34s.4-.18.63-.25c.23-.07.47-.1.73-.1.36,0,.7.05.99.15s.56.25.77.44c.22.19.39.43.51.72s.18.63.18,1.02v3.24h-1.43v-.62c-.15.24-.36.42-.62.55-.26.12-.53.19-.82.19-.27,0-.52-.04-.75-.11s-.43-.18-.6-.33c-.17-.15-.3-.32-.4-.53-.09-.21-.14-.43-.14-.68,0-.27.06-.51.17-.72.11-.21.27-.39.47-.53.2-.14.44-.25.7-.33.27-.08.55-.12.85-.12.22,0,.43.02.6.05.18.03.33.07.45.12v-.15c0-.15-.02-.28-.07-.4-.05-.12-.12-.22-.21-.31-.09-.09-.2-.16-.33-.2s-.27-.07-.44-.07c-.28,0-.54.07-.77.2s-.42.28-.55.44l-.81-.97ZM60.43,54.8c.14.11.32.16.54.16.15,0,.3-.03.43-.08.13-.05.24-.13.34-.23.09-.1.17-.21.22-.34.05-.13.08-.27.08-.42-.09-.05-.22-.09-.38-.13-.16-.04-.34-.06-.54-.06-.25,0-.46.05-.64.15-.18.1-.27.26-.27.49,0,.19.07.35.22.45Z"/>
        <path class="cls-2" d="M68.81,58.24c-.24-.31-.47-.67-.69-1.08-.22-.41-.41-.85-.57-1.32-.16-.47-.29-.98-.39-1.51-.1-.54-.15-1.09-.15-1.65s.05-1.13.14-1.64c.09-.51.22-1,.38-1.46.16-.46.35-.9.57-1.3.22-.41.45-.8.7-1.17h1.46c-.15.23-.33.53-.52.9s-.37.79-.55,1.27c-.17.48-.32,1.01-.44,1.58s-.18,1.18-.18,1.82.06,1.25.19,1.82c.12.57.27,1.09.44,1.56.17.47.35.9.55,1.27.19.37.37.67.52.91h-1.48Z"/>
        <path class="cls-2" d="M70.63,50.54c.19-.48.45-.9.78-1.26.34-.36.73-.64,1.19-.84.46-.2.96-.3,1.5-.3.33,0,.65.04.96.13s.6.21.87.37c.27.16.52.35.74.59.23.23.42.5.59.8l-1.21.86c-.23-.42-.5-.73-.83-.94-.33-.21-.7-.31-1.12-.31-.33,0-.63.06-.9.19s-.49.3-.67.52c-.18.22-.32.48-.42.78-.1.3-.15.63-.15.98s.05.67.15.98c.1.3.25.57.44.79.19.23.42.4.69.53.27.13.56.19.89.19.43,0,.81-.11,1.15-.32.34-.21.63-.52.86-.92l1.16.87c-.15.29-.34.56-.56.79-.23.23-.48.43-.76.59-.28.16-.58.28-.89.36s-.64.12-.97.12c-.54,0-1.04-.1-1.51-.3-.46-.2-.86-.48-1.2-.84-.34-.36-.6-.78-.78-1.27s-.28-1.02-.28-1.58.09-1.08.28-1.56Z"/>
        <path class="cls-2" d="M83.59,54.57v1.41h-5.21v-7.71h5.12v1.41h-3.71l.16-.19v5.27l-.16-.19h3.8ZM83.04,51.36v1.35h-3.3v-1.35h3.3Z"/>
        <path class="cls-2" d="M84.85,48.27h3.02c.53,0,1.01.1,1.46.29.45.19.83.47,1.16.81.33.35.58.76.77,1.23.19.47.28.98.28,1.53s-.09,1.05-.28,1.52-.44.88-.77,1.23c-.33.35-.71.62-1.16.81s-.93.29-1.46.29h-3.02v-7.71ZM87.79,54.58c.32,0,.61-.07.87-.2s.49-.31.67-.53c.18-.22.33-.48.44-.77s.16-.61.16-.95-.05-.66-.16-.96-.25-.56-.43-.78-.41-.4-.67-.53c-.26-.13-.55-.19-.87-.19h-1.58l.2-.22v5.36l-.2-.22h1.57Z"/>
        <path class="cls-2" d="M92.57,52.18h3.99v1.26h-3.99v-1.26Z"/>
        <path class="cls-2" d="M98.59,53.53c.19.38.44.66.74.85s.66.28,1.08.28c.16,0,.31-.02.45-.06.14-.04.26-.09.37-.17.11-.07.19-.16.25-.27.06-.11.09-.22.09-.34,0-.13-.03-.25-.09-.35-.06-.1-.15-.19-.26-.26-.11-.07-.26-.15-.44-.22-.18-.07-.38-.15-.62-.23-.33-.12-.65-.24-.95-.37s-.56-.28-.79-.45-.41-.39-.54-.64-.2-.56-.2-.91.07-.67.22-.95c.14-.28.34-.52.59-.71.25-.19.52-.34.83-.44.31-.1.63-.15.96-.15s.63.04.91.12c.28.08.53.19.75.33.22.14.41.3.58.49.17.19.31.4.42.63l-1.14.85c-.14-.29-.34-.52-.61-.72-.27-.19-.58-.28-.94-.28-.12,0-.25.02-.37.05-.12.04-.23.09-.33.15-.1.07-.17.15-.23.25-.06.1-.09.22-.09.35,0,.16.04.29.12.4.08.1.19.19.31.27.13.08.27.15.42.2.15.06.3.11.44.15.36.13.69.26,1.01.39s.59.28.82.47.41.4.54.66.2.57.2.94-.08.7-.24.98c-.16.28-.37.52-.62.7s-.54.33-.87.42c-.32.1-.64.15-.96.15-.36,0-.69-.04-.99-.12s-.59-.2-.84-.34c-.25-.15-.47-.33-.67-.54-.19-.21-.35-.45-.48-.7l1.15-.85Z"/>
        <path class="cls-2" d="M104.37,48.27h5.16v1.41h-3.74l.17-.19v6.49h-1.59v-7.71ZM108.75,51.39v1.4h-3v-1.4h3Z"/>
        <path class="cls-2" d="M110.65,48.27h3.02c.53,0,1.01.1,1.46.29.45.19.83.47,1.16.81.33.35.58.76.77,1.23.19.47.28.98.28,1.53s-.09,1.05-.28,1.52-.44.88-.77,1.23c-.33.35-.71.62-1.16.81s-.93.29-1.46.29h-3.02v-7.71ZM113.59,54.58c.32,0,.61-.07.87-.2s.49-.31.67-.53c.18-.22.33-.48.44-.77s.16-.61.16-.95-.05-.66-.16-.96-.25-.56-.43-.78-.41-.4-.67-.53c-.26-.13-.55-.19-.87-.19h-1.58l.2-.22v5.36l-.2-.22h1.57Z"/>
        <path class="cls-2" d="M117.37,58.24c.16-.23.33-.53.53-.91s.38-.79.55-1.27c.17-.47.32-.99.44-1.56.12-.57.19-1.18.19-1.82s-.06-1.25-.18-1.82c-.12-.57-.27-1.09-.44-1.58-.17-.48-.36-.9-.55-1.27-.19-.37-.36-.67-.51-.9h1.45c.24.37.47.76.69,1.16s.41.83.57,1.29c.16.46.28.95.38,1.46.09.52.14,1.07.14,1.65s-.05,1.1-.15,1.64c-.1.53-.23,1.04-.39,1.51s-.35.91-.56,1.33c-.21.41-.44.77-.68,1.08h-1.49Z"/>
      </g>
    </g>
  </g>
</svg>