<?xml version="1.0" encoding="UTF-8"?>
<svg id="Camada_2" data-name="Camada 2" xmlns="http://www.w3.org/2000/svg" viewBox="0 0 150.34 70.8">
  <defs>
    <style>
      .cls-1 {
        fill: #fff;
      }
    </style>
  </defs>
  <g id="conteúdo">
    <g>
      <path class="cls-1" d="M7.13.29h7.97c.84,0,1.59.13,2.27.39.68.26,1.26.61,1.74,1.07.49.46.86,1.01,1.13,1.66.27.65.4,1.33.4,2.06,0,.48-.06.93-.19,1.36-.12.43-.3.83-.51,1.2-.22.37-.5.71-.83,1.01-.33.3-.71.55-1.13.74l-.09-.49c1.12.38,1.96.98,2.5,1.8.54.82.81,1.75.81,2.8,0,.72-.14,1.41-.41,2.07-.28.66-.66,1.23-1.14,1.71-.49.49-1.07.87-1.76,1.14-.69.28-1.46.41-2.31.41H7.13V.29ZM14.87,15.86c.38,0,.71-.06,1-.19.29-.12.53-.3.73-.51.2-.22.36-.47.47-.74.11-.28.17-.57.17-.87s-.06-.6-.17-.87c-.11-.28-.28-.52-.49-.73-.21-.21-.46-.38-.74-.5-.29-.12-.61-.19-.97-.19h-4.34v-3.2h3.97c.34,0,.65-.05.91-.16.27-.1.5-.26.69-.47.19-.21.34-.45.44-.71.1-.27.16-.54.16-.83,0-.3-.05-.59-.16-.86-.1-.27-.26-.5-.46-.7s-.43-.37-.7-.5c-.27-.13-.58-.2-.94-.2h-3.91l.51-.54v13.31l-.51-.54h4.34Z"/>
      <path class="cls-1" d="M28.24,2.54l.43-.49v17.17h-2.46V.29h7.37c.9,0,1.72.13,2.47.39.75.26,1.4.63,1.94,1.11.54.49.96,1.07,1.26,1.76.29.69.44,1.46.44,2.31,0,1.37-.38,2.53-1.14,3.49-.76.95-1.8,1.6-3.11,1.94l.26-.57,4.63,8.51h-2.86l-4.31-8.14.63.4h-5.66v-2.26h5.34c1.16,0,2.06-.31,2.7-.94.64-.63.96-1.44.96-2.43s-.32-1.81-.96-2.41c-.64-.6-1.54-.9-2.7-.9h-5.23Z"/>
      <path class="cls-1" d="M44.99.29h2.49v18.94h-2.49V.29Z"/>
      <path class="cls-1" d="M53.7.29h7c1.31,0,2.53.24,3.64.71,1.11.48,2.07,1.14,2.87,1.99.8.85,1.43,1.85,1.89,3.01.46,1.16.69,2.42.69,3.77s-.23,2.61-.69,3.76c-.46,1.15-1.09,2.15-1.89,3-.8.85-1.76,1.51-2.87,1.99-1.11.48-2.33.71-3.64.71h-7V.29ZM60.64,16.94c.99,0,1.89-.19,2.7-.56.81-.37,1.5-.88,2.07-1.51.57-.64,1.01-1.4,1.33-2.27.31-.88.47-1.82.47-2.83s-.16-1.96-.47-2.84-.76-1.65-1.33-2.3c-.57-.65-1.26-1.16-2.07-1.53-.81-.37-1.71-.56-2.7-.56h-4.97l.51-.57v15.54l-.51-.57h4.97Z"/>
      <path class="cls-1" d="M74.41,6.03c.46-1.2,1.09-2.25,1.9-3.14.81-.9,1.79-1.6,2.93-2.11,1.14-.51,2.39-.77,3.74-.77,1.62,0,3.11.37,4.49,1.11,1.37.74,2.49,1.79,3.34,3.14l-1.89,1.4c-.72-1.01-1.58-1.81-2.56-2.4-.98-.59-2.08-.89-3.3-.89-1.05,0-1.99.2-2.83.59-.84.39-1.55.92-2.13,1.59-.58.67-1.02,1.45-1.33,2.36-.3.9-.46,1.87-.46,2.9s.15,1.93.44,2.83c.3.9.73,1.68,1.3,2.34.57.67,1.27,1.2,2.09,1.6.82.4,1.75.6,2.8.6.86,0,1.65-.14,2.37-.41.72-.28,1.35-.66,1.89-1.14.53-.49.97-1.06,1.3-1.73.33-.67.53-1.39.59-2.17h-6.29v-2.26h8.86c.04.15.06.3.06.46v.46c0,1.26-.2,2.44-.61,3.54-.41,1.11-.99,2.07-1.74,2.9-.75.83-1.66,1.49-2.73,1.97-1.07.49-2.26.73-3.57.73-1.39,0-2.66-.25-3.81-.74-1.15-.5-2.14-1.18-2.96-2.04-.82-.87-1.45-1.89-1.9-3.06-.45-1.17-.67-2.43-.67-3.79s.23-2.66.69-3.86Z"/>
      <path class="cls-1" d="M96.61.29h2.49v18.94h-2.49V.29Z"/>
      <path class="cls-1" d="M105.36.29h2.54l11.4,15.37-.31.14V.29h2.46v18.94h-2.51l-11.4-15.26.31-.14v15.4h-2.49V.29Z"/>
      <path class="cls-1" d="M127.27,6.03c.46-1.2,1.09-2.25,1.9-3.14.81-.9,1.79-1.6,2.93-2.11,1.14-.51,2.39-.77,3.74-.77,1.62,0,3.11.37,4.49,1.11,1.37.74,2.49,1.79,3.34,3.14l-1.89,1.4c-.72-1.01-1.58-1.81-2.56-2.4-.98-.59-2.08-.89-3.3-.89-1.05,0-1.99.2-2.83.59-.84.39-1.55.92-2.13,1.59-.58.67-1.02,1.45-1.33,2.36-.3.9-.46,1.87-.46,2.9s.15,1.93.44,2.83c.3.9.73,1.68,1.3,2.34.57.67,1.27,1.2,2.09,1.6.82.4,1.75.6,2.8.6.86,0,1.65-.14,2.37-.41.72-.28,1.35-.66,1.89-1.14.53-.49.97-1.06,1.3-1.73.33-.67.53-1.39.59-2.17h-6.29v-2.26h8.86c.04.15.06.3.06.46v.46c0,1.26-.2,2.44-.61,3.54-.41,1.11-.99,2.07-1.74,2.9s-1.66,1.49-2.73,1.97-2.26.73-3.57.73c-1.39,0-2.66-.25-3.82-.74-1.15-.5-2.14-1.18-2.96-2.04-.82-.87-1.45-1.89-1.9-3.06-.45-1.17-.67-2.43-.67-3.79s.23-2.66.69-3.86Z"/>
      <path class="cls-1" d="M12.8,41.41v3.46H0v-18.94h12.57v3.46H3.46l.4-.46v12.94l-.4-.46h9.34ZM11.46,33.53v3.31H3.34v-3.31h8.11Z"/>
      <path class="cls-1" d="M20,25.93v12.09c0,.74.12,1.41.36,2.01.24.6.58,1.11,1.01,1.51.44.41.96.72,1.57.94.61.22,1.3.33,2.06.33s1.42-.11,2.04-.33c.62-.22,1.15-.53,1.59-.94.44-.41.78-.91,1.01-1.51.24-.6.36-1.27.36-2.01v-12.09h2.43v12.17c0,1.09-.18,2.06-.53,2.93-.35.87-.85,1.61-1.5,2.23-.65.62-1.43,1.09-2.34,1.41-.91.32-1.93.49-3.06.49s-2.17-.16-3.09-.49c-.91-.32-1.7-.79-2.34-1.41-.65-.62-1.15-1.36-1.5-2.23-.35-.87-.53-1.84-.53-2.93v-12.17h2.46Z"/>
      <path class="cls-1" d="M40.49,28.19l.43-.49v17.17h-2.46v-18.94h7.37c.9,0,1.72.13,2.47.39.75.26,1.4.63,1.94,1.11.54.49.96,1.07,1.26,1.76.29.69.44,1.46.44,2.31,0,1.37-.38,2.53-1.14,3.49-.76.95-1.8,1.6-3.11,1.94l.26-.57,4.63,8.51h-2.86l-4.31-8.14.63.4h-5.66v-2.26h5.34c1.16,0,2.06-.31,2.7-.94.64-.63.96-1.44.96-2.43s-.32-1.81-.96-2.41c-.64-.6-1.54-.9-2.7-.9h-5.23Z"/>
      <path class="cls-1" d="M56.7,31.5c.45-1.2,1.08-2.23,1.89-3.1.81-.87,1.77-1.54,2.89-2.03,1.11-.49,2.33-.73,3.64-.73s2.56.24,3.67.73c1.11.49,2.08,1.16,2.89,2.03.81.87,1.44,1.9,1.89,3.1.45,1.2.67,2.51.67,3.91s-.22,2.74-.67,3.94c-.45,1.2-1.08,2.23-1.89,3.09-.81.86-1.77,1.52-2.89,2-1.11.48-2.34.71-3.67.71s-2.53-.24-3.64-.71c-1.11-.48-2.08-1.14-2.89-2-.81-.86-1.44-1.89-1.89-3.09-.45-1.2-.67-2.5-.67-3.91s.22-2.74.67-3.94ZM62.47,28.54c-.81.37-1.5.89-2.07,1.54s-1.02,1.44-1.34,2.34c-.32.9-.49,1.89-.49,2.96s.16,2.11.49,3.01c.32.9.77,1.68,1.34,2.33.57.65,1.26,1.16,2.07,1.53.81.37,1.7.56,2.67.56s1.86-.19,2.67-.56c.81-.37,1.5-.88,2.07-1.53.57-.65,1.01-1.42,1.31-2.33.3-.9.46-1.91.46-3.01s-.15-2.05-.46-2.96c-.3-.9-.74-1.69-1.31-2.34-.57-.66-1.26-1.17-2.07-1.54-.81-.37-1.7-.56-2.67-.56s-1.86.19-2.67.56Z"/>
      <path class="cls-1" d="M81.83,27.73v17.14h-2.46v-18.94h7.23c.89,0,1.71.14,2.44.41.73.28,1.35.67,1.86,1.19.5.51.9,1.12,1.19,1.81.29.7.43,1.46.43,2.3s-.14,1.61-.43,2.31c-.29.7-.68,1.31-1.19,1.83-.51.51-1.12.91-1.86,1.2-.73.29-1.55.43-2.44.43h-5.31v-2.31h5.14c1.12,0,2-.33,2.61-.99.62-.66.93-1.48.93-2.47s-.31-1.83-.93-2.47c-.62-.64-1.49-.96-2.61-.96h-5.03l.43-.49Z"/>
      <path class="cls-1" d="M109.63,42.59v2.29h-12.43v-18.94h12.14v2.29h-10.09l.43-.49v15.34l-.43-.49h10.37ZM108.09,33.99v2.29h-8.94v-2.29h8.94Z"/>
      <path class="cls-1" d="M119.97,25.93h2.71l7.46,18.94h-2.63l-1.8-4.74.57.43h-9.94l.6-.43-1.77,4.74h-2.6l7.4-18.94ZM117.09,38.44h8.54l-.29.46-4.2-10.49h.4l-4.2,10.49-.26-.46Z"/>
      <path class="cls-1" d="M134.26,25.93h2.54l11.4,15.37-.31.14v-15.51h2.46v18.94h-2.51l-11.4-15.26.31-.14v15.4h-2.49v-18.94Z"/>
      <path class="cls-1" d="M17.69,64.51c.48.93,1.09,1.63,1.83,2.1.74.47,1.63.7,2.66.7.4,0,.77-.05,1.1-.14.33-.1.63-.23.9-.41.27-.18.47-.4.61-.67.14-.27.21-.54.21-.83,0-.32-.08-.61-.23-.86-.15-.25-.37-.46-.64-.64-.28-.18-.63-.36-1.07-.54-.44-.18-.94-.37-1.51-.56-.82-.29-1.6-.59-2.33-.9-.73-.31-1.38-.69-1.94-1.11-.56-.43-1.01-.95-1.33-1.57-.32-.62-.49-1.37-.49-2.24s.18-1.66.53-2.34c.35-.69.83-1.27,1.44-1.74.61-.48,1.29-.84,2.04-1.09.75-.25,1.54-.37,2.36-.37s1.54.1,2.23.3c.69.2,1.3.47,1.84.8.54.33,1.02.74,1.43,1.21.41.48.76.99,1.04,1.54l-2.8,2.09c-.34-.7-.84-1.29-1.5-1.76-.66-.47-1.42-.7-2.3-.7-.3,0-.61.04-.91.13-.3.09-.58.21-.81.37-.24.16-.43.37-.57.61-.14.25-.21.53-.21.86,0,.4.1.72.3.97.2.25.46.47.77.66.31.19.66.36,1.04.5.38.14.74.26,1.09.36.88.32,1.7.64,2.49.96.78.31,1.45.7,2.01,1.14.56.45,1,.99,1.33,1.61.32.63.49,1.4.49,2.31s-.2,1.72-.59,2.41c-.39.7-.9,1.27-1.53,1.73-.63.46-1.34.8-2.13,1.04-.79.24-1.58.36-2.36.36-.88,0-1.69-.1-2.44-.3-.75-.2-1.44-.48-2.06-.84-.62-.36-1.17-.8-1.64-1.33-.48-.52-.87-1.1-1.17-1.73l2.83-2.09Z"/>
      <path class="cls-1" d="M33.31,57.19c.46-1.19,1.1-2.22,1.91-3.1.82-.88,1.78-1.56,2.89-2.06,1.1-.5,2.3-.74,3.57-.74.82,0,1.6.1,2.36.3.75.2,1.46.49,2.11.87.66.38,1.26.85,1.81,1.4.55.55,1.05,1.19,1.49,1.91l-1.97,1.37c-.74-1.2-1.6-2.08-2.57-2.64-.97-.56-2.03-.84-3.17-.84-.95,0-1.83.19-2.63.56-.8.37-1.49.89-2.07,1.54-.58.66-1.03,1.43-1.36,2.33-.32.9-.49,1.88-.49,2.94s.16,2.08.49,2.99c.32.9.78,1.69,1.36,2.34.58.66,1.27,1.17,2.07,1.53.8.36,1.68.54,2.63.54,1.2,0,2.3-.29,3.3-.86,1-.57,1.87-1.44,2.61-2.6l1.86,1.37c-.4.7-.88,1.33-1.44,1.89-.56.55-1.18,1.02-1.84,1.4-.67.38-1.38.67-2.13.87-.75.2-1.54.3-2.36.3-1.28,0-2.47-.25-3.59-.74-1.11-.5-2.08-1.18-2.9-2.06-.82-.88-1.46-1.91-1.93-3.1-.47-1.19-.7-2.48-.7-3.87s.23-2.65.69-3.84Z"/>
      <path class="cls-1" d="M54.17,51.57h2.49v18.94h-2.49v-18.94Z"/>
      <path class="cls-1" d="M75.31,68.23v2.29h-12.43v-18.94h12.14v2.29h-10.09l.43-.49v15.34l-.43-.49h10.37ZM73.77,59.63v2.29h-8.94v-2.29h8.94Z"/>
      <path class="cls-1" d="M80.43,51.57h2.54l11.4,15.37-.31.14v-15.51h2.46v18.94h-2.51l-11.4-15.26.31-.14v15.4h-2.49v-18.94Z"/>
      <path class="cls-1" d="M102.34,57.19c.46-1.19,1.1-2.22,1.91-3.1.82-.88,1.78-1.56,2.89-2.06,1.1-.5,2.3-.74,3.57-.74.82,0,1.6.1,2.36.3.75.2,1.46.49,2.11.87.66.38,1.26.85,1.81,1.4.55.55,1.05,1.19,1.49,1.91l-1.97,1.37c-.74-1.2-1.6-2.08-2.57-2.64-.97-.56-2.03-.84-3.17-.84-.95,0-1.83.19-2.63.56-.8.37-1.49.89-2.07,1.54-.58.66-1.03,1.43-1.36,2.33-.32.9-.49,1.88-.49,2.94s.16,2.08.49,2.99c.32.9.78,1.69,1.36,2.34.58.66,1.27,1.17,2.07,1.53.8.36,1.68.54,2.63.54,1.2,0,2.3-.29,3.3-.86,1-.57,1.87-1.44,2.61-2.6l1.86,1.37c-.4.7-.88,1.33-1.44,1.89-.56.55-1.18,1.02-1.84,1.4-.67.38-1.38.67-2.13.87-.75.2-1.54.3-2.36.3-1.28,0-2.47-.25-3.59-.74-1.11-.5-2.08-1.18-2.9-2.06-.82-.88-1.46-1.91-1.93-3.1-.47-1.19-.7-2.48-.7-3.87s.23-2.65.69-3.84Z"/>
      <path class="cls-1" d="M135.63,68.23v2.29h-12.43v-18.94h12.14v2.29h-10.09l.43-.49v15.34l-.43-.49h10.37ZM134.09,59.63v2.29h-8.94v-2.29h8.94Z"/>
    </g>
  </g>
</svg>