<?xml version="1.0" encoding="UTF-8"?>
<svg id="Camada_2" data-name="Camada 2" xmlns="http://www.w3.org/2000/svg" viewBox="0 0 218.46 53.03">
  <defs>
    <style>
      .cls-1 {
        fill: #fff;
      }
    </style>
  </defs>
  <g id="conteúdo">
    <g>
      <g>
        <path class="cls-1" d="M35.98,53.01c-8.86-.47-16.46-7.15-17.76-16.26-1.48-10.36,5.74-19.99,16.1-21.47l.36,2.54c-8.96,1.28-15.2,9.61-13.92,18.57,1.28,8.96,9.61,15.2,18.57,13.92l.2-.03.36,2.54-.2.03c-1.25.18-2.49.23-3.71.17Z"/>
        <path class="cls-1" d="M32.64,17.93c-1.73-.09-3.39-.69-4.82-1.74-1.93-1.42-3.19-3.51-3.55-5.88C23.53,5.43,26.9.84,31.79.1c1.33-.2,2.65-.11,3.93.28l-.74,2.46c-.91-.27-1.86-.34-2.81-.2-3.49.53-5.9,3.8-5.37,7.29.26,1.69,1.16,3.18,2.53,4.2s3.07,1.43,4.76,1.18l.38,2.54c-.62.09-1.23.12-1.84.09Z"/>
      </g>
      <path class="cls-1" d="M34.77,45.31c-2.27-.17-4.5-1.02-6.38-2.59-1.14-.95-2.06-2.09-2.75-3.39l2.27-1.2c.53,1,1.25,1.89,2.13,2.62,3.7,3.09,9.22,2.59,12.31-1.11,1.68-2.02,2.4-4.77,1.92-7.35-.27-1.42-.85-2.66-1.74-3.68l-.21-.24c-1.13-1.3-2.31-2.64-2.92-4.43-1.12-3.26-.45-6.93,1.76-9.57,3.5-4.19,9.75-4.75,13.94-1.25,1.14.95,2.03,2.11,2.65,3.45l-2.33,1.07c-.46-.99-1.12-1.85-1.96-2.55-3.1-2.59-7.73-2.17-10.32.93-1.63,1.96-2.13,4.68-1.3,7.09.45,1.31,1.41,2.41,2.43,3.58l.22.25c1.19,1.37,1.98,3.02,2.33,4.89.62,3.33-.3,6.87-2.47,9.46-2.43,2.91-6.03,4.29-9.55,4.02Z"/>
      <path class="cls-1" d="M27.76,33.28c-1.04-3.44-3.35-6.26-6.51-7.96-1.91-1.02-3.99-1.56-6.1-1.6,2.62-3.96,1.69-9.33-2.17-12.17-1.93-1.42-4.3-1.99-6.67-1.62-2.36.37-4.45,1.64-5.87,3.57l-.44.6,10.26,22.96,2.34-1.05L2.97,14.47c.98-1.07,2.29-1.77,3.74-2,1.69-.27,3.38.14,4.75,1.15,2.85,2.09,3.46,6.11,1.37,8.95-.57.77-1.28,1.4-2.12,1.85l1.05,2.34c2.78-.84,5.72-.55,8.28.83,2.56,1.37,4.43,3.66,5.27,6.44.84,2.78.55,5.72-.83,8.28-1.37,2.56-3.66,4.43-6.44,5.27l.74,2.46c3.44-1.04,6.26-3.35,7.96-6.51s2.06-6.8,1.02-10.23Z"/>
      <g>
        <path class="cls-1" d="M72.79,2.34h5.57c.59,0,1.11.09,1.59.27.47.18.88.43,1.22.75.34.32.6.71.79,1.16.19.45.28.93.28,1.44,0,.33-.04.65-.13.95-.09.3-.21.58-.36.84-.15.26-.35.5-.58.71-.23.21-.5.39-.79.52l-.06-.34c.78.27,1.37.69,1.75,1.26.38.57.57,1.22.57,1.96,0,.51-.1.99-.29,1.45-.19.46-.46.86-.8,1.2-.34.34-.75.61-1.23.8-.48.19-1.02.29-1.62.29h-5.91V2.34ZM78.2,13.22c.27,0,.5-.04.7-.13.2-.09.37-.21.51-.36.14-.15.25-.33.33-.52.08-.19.12-.4.12-.61s-.04-.42-.12-.61c-.08-.19-.19-.36-.34-.51-.15-.15-.32-.26-.52-.35-.2-.09-.43-.13-.68-.13h-3.03v-2.24h2.77c.24,0,.45-.04.64-.11.19-.07.35-.18.48-.33.13-.15.24-.31.31-.5.07-.19.11-.38.11-.58,0-.21-.04-.41-.11-.6-.07-.19-.18-.35-.32-.49s-.3-.26-.49-.35c-.19-.09-.41-.14-.66-.14h-2.73l.36-.38v9.3l-.36-.38h3.03Z"/>
        <path class="cls-1" d="M87.54,3.92l.3-.34v11.99h-1.72V2.34h5.15c.63,0,1.2.09,1.73.27.53.18.98.44,1.36.78.38.34.67.75.88,1.23.21.48.31,1.02.31,1.62,0,.96-.27,1.77-.8,2.43-.53.67-1.26,1.12-2.18,1.36l.18-.4,3.23,5.95h-2l-3.01-5.69.44.28h-3.95v-1.58h3.73c.81,0,1.44-.22,1.89-.66.45-.44.67-1,.67-1.7s-.22-1.27-.67-1.69c-.45-.42-1.07-.63-1.89-.63h-3.65Z"/>
        <path class="cls-1" d="M99.23,2.34h1.74v13.23h-1.74V2.34Z"/>
        <path class="cls-1" d="M105.32,2.34h4.89c.92,0,1.77.17,2.54.5.78.33,1.45.8,2.01,1.39.56.59,1,1.29,1.32,2.11.32.81.48,1.69.48,2.63s-.16,1.82-.48,2.62c-.32.81-.76,1.5-1.32,2.1-.56.59-1.23,1.05-2.01,1.39-.78.33-1.63.5-2.54.5h-4.89V2.34ZM110.17,13.98c.69,0,1.32-.13,1.89-.39.57-.26,1.05-.61,1.45-1.06.4-.45.71-.97.93-1.59.22-.61.33-1.27.33-1.98s-.11-1.37-.33-1.99-.53-1.15-.93-1.61c-.4-.45-.88-.81-1.45-1.07-.57-.26-1.19-.39-1.89-.39h-3.47l.36-.4v10.86l-.36-.4h3.47Z"/>
        <path class="cls-1" d="M119.79,6.35c.32-.84.76-1.57,1.33-2.2.57-.63,1.25-1.12,2.05-1.48.8-.36,1.67-.54,2.61-.54,1.13,0,2.18.26,3.13.78.96.52,1.74,1.25,2.33,2.2l-1.32.98c-.51-.71-1.1-1.26-1.79-1.68-.69-.41-1.45-.62-2.3-.62-.73,0-1.39.14-1.98.41-.59.27-1.08.64-1.49,1.11-.41.47-.72,1.01-.93,1.65-.21.63-.32,1.31-.32,2.03s.1,1.35.31,1.98c.21.63.51,1.17.91,1.64.4.47.88.84,1.46,1.12.57.28,1.22.42,1.96.42.6,0,1.15-.1,1.66-.29.51-.19.94-.46,1.32-.8.37-.34.68-.74.91-1.21.23-.47.37-.97.41-1.52h-4.39v-1.58h6.19c.03.11.04.21.04.32v.32c0,.88-.14,1.7-.43,2.47-.29.77-.69,1.45-1.22,2.03-.53.58-1.16,1.04-1.91,1.38-.75.34-1.58.51-2.49.51-.97,0-1.86-.17-2.66-.52-.81-.35-1.49-.82-2.07-1.43-.57-.61-1.01-1.32-1.33-2.14-.31-.82-.47-1.7-.47-2.64s.16-1.86.48-2.69Z"/>
        <path class="cls-1" d="M135.29,2.34h1.74v13.23h-1.74V2.34Z"/>
        <path class="cls-1" d="M141.4,2.34h1.78l7.96,10.74-.22.1V2.34h1.72v13.23h-1.76l-7.96-10.66.22-.1v10.76h-1.74V2.34Z"/>
        <path class="cls-1" d="M156.7,6.35c.32-.84.76-1.57,1.33-2.2.57-.63,1.25-1.12,2.05-1.48.8-.36,1.67-.54,2.61-.54,1.13,0,2.18.26,3.13.78.96.52,1.74,1.25,2.33,2.2l-1.32.98c-.51-.71-1.1-1.26-1.79-1.68-.69-.41-1.45-.62-2.3-.62-.73,0-1.39.14-1.98.41-.59.27-1.08.64-1.49,1.11-.41.47-.72,1.01-.93,1.65-.21.63-.32,1.31-.32,2.03s.1,1.35.31,1.98c.21.63.51,1.17.91,1.64.4.47.88.84,1.46,1.12.57.28,1.22.42,1.96.42.6,0,1.15-.1,1.66-.29.51-.19.94-.46,1.32-.8.37-.34.68-.74.91-1.21.23-.47.37-.97.41-1.52h-4.39v-1.58h6.19c.03.11.04.21.04.32v.32c0,.88-.14,1.7-.43,2.47-.29.77-.69,1.45-1.22,2.03s-1.16,1.04-1.91,1.38-1.58.51-2.49.51c-.97,0-1.86-.17-2.66-.52-.81-.35-1.49-.82-2.07-1.43-.57-.61-1.01-1.32-1.33-2.14-.31-.82-.47-1.7-.47-2.64s.16-1.86.48-2.69Z"/>
        <path class="cls-1" d="M76.75,31.07v2.41h-8.94v-13.23h8.78v2.41h-6.37l.28-.32v9.04l-.28-.32h6.53ZM75.81,25.56v2.31h-5.67v-2.31h5.67Z"/>
        <path class="cls-1" d="M81.78,20.25v8.44c0,.52.08.99.25,1.41.17.42.4.77.71,1.06.31.29.67.51,1.1.66.43.15.9.23,1.44.23s.99-.08,1.43-.23c.43-.15.8-.37,1.11-.66.31-.29.54-.64.71-1.06.17-.42.25-.89.25-1.41v-8.44h1.7v8.5c0,.76-.12,1.44-.37,2.05-.25.61-.6,1.12-1.05,1.56-.45.43-1,.76-1.64.99-.64.23-1.35.34-2.14.34s-1.52-.11-2.16-.34c-.64-.23-1.18-.56-1.64-.99-.45-.43-.8-.95-1.05-1.56-.25-.61-.37-1.29-.37-2.05v-8.5h1.72Z"/>
        <path class="cls-1" d="M96.09,21.83l.3-.34v11.99h-1.72v-13.23h5.15c.63,0,1.2.09,1.73.27.53.18.98.44,1.36.78.38.34.67.75.88,1.23.21.48.31,1.02.31,1.62,0,.96-.27,1.77-.8,2.43-.53.67-1.26,1.12-2.18,1.36l.18-.4,3.23,5.95h-2l-3.01-5.69.44.28h-3.95v-1.58h3.73c.81,0,1.44-.22,1.89-.66.45-.44.67-1,.67-1.7s-.22-1.27-.67-1.69c-.45-.42-1.07-.63-1.89-.63h-3.65Z"/>
        <path class="cls-1" d="M107.41,24.14c.31-.84.75-1.56,1.32-2.17.57-.61,1.24-1.08,2.02-1.42.78-.34,1.63-.51,2.54-.51s1.79.17,2.56.51c.78.34,1.45.81,2.02,1.42.57.61,1,1.33,1.32,2.17.31.84.47,1.75.47,2.73s-.16,1.92-.47,2.75c-.31.84-.75,1.56-1.32,2.16-.57.6-1.24,1.06-2.02,1.4-.78.33-1.63.5-2.56.5s-1.77-.17-2.54-.5c-.78-.33-1.45-.8-2.02-1.4-.57-.6-1-1.32-1.32-2.16-.31-.84-.47-1.75-.47-2.73s.16-1.92.47-2.75ZM111.45,22.08c-.57.26-1.05.62-1.45,1.08s-.71,1-.94,1.64c-.23.63-.34,1.32-.34,2.07s.11,1.47.34,2.11c.23.63.54,1.17.94,1.63.4.45.88.81,1.45,1.07.57.26,1.19.39,1.87.39s1.3-.13,1.87-.39c.57-.26,1.05-.62,1.45-1.07.4-.45.71-.99.92-1.63.21-.63.32-1.33.32-2.11s-.11-1.43-.32-2.07c-.21-.63-.52-1.18-.92-1.64-.4-.46-.88-.82-1.45-1.08-.57-.26-1.19-.39-1.87-.39s-1.3.13-1.87.39Z"/>
        <path class="cls-1" d="M124.97,21.51v11.97h-1.72v-13.23h5.05c.63,0,1.19.1,1.71.29.51.19.94.47,1.3.83.35.36.63.78.83,1.27.2.49.3,1.02.3,1.61s-.1,1.12-.3,1.62c-.2.49-.48.92-.83,1.28-.35.36-.79.64-1.3.84-.51.2-1.08.3-1.71.3h-3.71v-1.62h3.59c.78,0,1.39-.23,1.83-.69.43-.46.65-1.03.65-1.73s-.22-1.28-.65-1.73c-.43-.45-1.04-.67-1.83-.67h-3.51l.3-.34Z"/>
        <path class="cls-1" d="M144.38,31.89v1.6h-8.68v-13.23h8.48v1.6h-7.04l.3-.34v10.72l-.3-.34h7.24ZM143.3,25.88v1.6h-6.25v-1.6h6.25Z"/>
        <path class="cls-1" d="M151.61,20.25h1.9l5.21,13.23h-1.84l-1.26-3.31.4.3h-6.94l.42-.3-1.24,3.31h-1.82l5.17-13.23ZM149.59,28.99h5.97l-.2.32-2.93-7.32h.28l-2.93,7.32-.18-.32Z"/>
        <path class="cls-1" d="M161.58,20.25h1.78l7.96,10.74-.22.1v-10.84h1.72v13.23h-1.76l-7.96-10.66.22-.1v10.76h-1.74v-13.23Z"/>
        <path class="cls-1" d="M80.16,47.2c.33.65.76,1.14,1.28,1.47.52.33,1.14.49,1.86.49.28,0,.54-.03.77-.1.23-.07.44-.16.63-.29.19-.13.33-.28.43-.47.1-.19.15-.38.15-.58,0-.23-.05-.43-.16-.6-.11-.17-.26-.32-.45-.45-.19-.13-.44-.25-.75-.38-.31-.13-.66-.26-1.06-.39-.57-.2-1.11-.41-1.63-.63-.51-.22-.96-.48-1.36-.78-.39-.3-.7-.66-.93-1.1-.23-.43-.34-.95-.34-1.57s.12-1.16.37-1.64c.25-.48.58-.88,1.01-1.22.43-.33.9-.59,1.43-.76.53-.17,1.07-.26,1.65-.26s1.08.07,1.56.21c.48.14.91.33,1.29.56.38.23.71.52,1,.85.29.33.53.69.73,1.08l-1.96,1.46c-.24-.49-.59-.9-1.05-1.23-.46-.33-.99-.49-1.61-.49-.21,0-.43.03-.64.09-.21.06-.4.15-.57.26-.17.11-.3.26-.4.43-.1.17-.15.37-.15.6,0,.28.07.51.21.68.14.17.32.33.54.46.22.13.46.25.73.35.27.1.52.18.76.25.61.23,1.19.45,1.74.67.55.22,1.01.49,1.41.8.39.31.7.69.93,1.13.23.44.34.98.34,1.62s-.14,1.2-.41,1.69c-.27.49-.63.89-1.07,1.21-.44.32-.93.56-1.49.73-.55.17-1.1.25-1.65.25-.61,0-1.18-.07-1.71-.21-.53-.14-1-.34-1.44-.59-.43-.25-.82-.56-1.15-.93-.33-.37-.61-.77-.82-1.21l1.98-1.46Z"/>
        <path class="cls-1" d="M91.08,42.08c.32-.83.76-1.55,1.34-2.17.57-.61,1.24-1.09,2.02-1.44.77-.35,1.6-.52,2.49-.52.57,0,1.12.07,1.65.21.53.14,1.02.34,1.48.61.46.27.88.59,1.27.98.39.39.73.83,1.04,1.34l-1.38.96c-.52-.84-1.12-1.45-1.8-1.85-.68-.39-1.42-.59-2.22-.59-.67,0-1.28.13-1.84.39-.56.26-1.04.62-1.45,1.08-.41.46-.72,1-.95,1.63-.23.63-.34,1.31-.34,2.06s.11,1.45.34,2.09c.23.63.54,1.18.95,1.64.41.46.89.82,1.45,1.07.56.25,1.17.38,1.84.38.84,0,1.61-.2,2.31-.6.7-.4,1.31-1,1.83-1.82l1.3.96c-.28.49-.62.93-1.01,1.32-.39.39-.82.71-1.29.98-.47.27-.96.47-1.49.61-.53.14-1.07.21-1.65.21-.89,0-1.73-.17-2.5-.52-.78-.35-1.45-.82-2.03-1.44-.57-.61-1.02-1.33-1.35-2.17-.33-.83-.49-1.73-.49-2.7s.16-1.85.48-2.68Z"/>
        <path class="cls-1" d="M105.65,38.16h1.74v13.23h-1.74v-13.23Z"/>
        <path class="cls-1" d="M120.42,49.8v1.6h-8.68v-13.23h8.48v1.6h-7.04l.3-.34v10.72l-.3-.34h7.24ZM119.34,43.79v1.6h-6.25v-1.6h6.25Z"/>
        <path class="cls-1" d="M123.99,38.16h1.78l7.96,10.74-.22.1v-10.84h1.72v13.23h-1.76l-7.96-10.66.22-.1v10.76h-1.74v-13.23Z"/>
        <path class="cls-1" d="M139.29,42.08c.32-.83.76-1.55,1.34-2.17.57-.61,1.24-1.09,2.02-1.44.77-.35,1.6-.52,2.49-.52.57,0,1.12.07,1.65.21.53.14,1.02.34,1.48.61.46.27.88.59,1.27.98.39.39.73.83,1.04,1.34l-1.38.96c-.52-.84-1.12-1.45-1.8-1.85-.68-.39-1.42-.59-2.22-.59-.67,0-1.28.13-1.84.39-.56.26-1.04.62-1.45,1.08-.41.46-.72,1-.95,1.63-.23.63-.34,1.31-.34,2.06s.11,1.45.34,2.09c.23.63.54,1.18.95,1.64.41.46.89.82,1.45,1.07.56.25,1.17.38,1.84.38.84,0,1.61-.2,2.31-.6.7-.4,1.31-1,1.83-1.82l1.3.96c-.28.49-.62.93-1.01,1.32-.39.39-.82.71-1.29.98-.47.27-.96.47-1.49.61-.53.14-1.07.21-1.65.21-.89,0-1.73-.17-2.5-.52-.78-.35-1.45-.82-2.03-1.44-.57-.61-1.02-1.33-1.35-2.17-.33-.83-.49-1.73-.49-2.7s.16-1.85.48-2.68Z"/>
        <path class="cls-1" d="M162.54,49.8v1.6h-8.68v-13.23h8.48v1.6h-7.04l.3-.34v10.72l-.3-.34h7.24ZM161.46,43.79v1.6h-6.25v-1.6h6.25Z"/>
      </g>
      <path class="cls-1" d="M213.48.35l2.35,1.07-12.74,29.46h-3.04l-12.72-29.52,2.33-1.01,12.19,28.04h-.55L213.48.35Z"/>
      <g>
        <path class="cls-1" d="M190.32,39.04h3.69v.79h-2.97l.14-.15v5.07h-.86v-5.71ZM193.4,41.44v.78h-2.39v-.78h2.39Z"/>
        <path class="cls-1" d="M195.43,39.04h.86v5.71h-.86v-5.71Z"/>
        <path class="cls-1" d="M198.15,39.04h3.69v.79h-2.97l.14-.15v5.07h-.86v-5.71ZM201.24,41.44v.78h-2.39v-.78h2.39Z"/>
        <path class="cls-1" d="M202.72,39.04h4.31v.82h-4.31v-.82ZM204.45,39.73h.84v5.02h-.84v-5.02Z"/>
        <path class="cls-1" d="M208.31,39.04h.86v5.71h-.86v-5.71ZM212.15,41.44v.78h-3.15v-.78h3.15ZM211.98,44.75v-5.71h.86v5.71h-.86Z"/>
        <path class="cls-1" d="M188.49,52.16v.79h-3.8v-5.71h3.71v.79h-2.99l.14-.15v4.43l-.14-.15h3.07ZM188.04,49.62v.78h-2.66v-.78h2.66Z"/>
        <path class="cls-1" d="M190.01,47.24h2.15c.4,0,.76.07,1.09.22.33.14.62.34.86.6.24.26.42.56.56.91.13.35.2.73.2,1.14s-.07.79-.2,1.13c-.14.35-.32.65-.56.9-.24.26-.52.46-.86.6-.33.14-.7.22-1.09.22h-2.15v-5.71ZM192.14,52.16c.28,0,.53-.05.76-.16.23-.11.42-.25.58-.43.16-.18.28-.4.37-.65s.13-.52.13-.81-.04-.56-.13-.81c-.09-.26-.21-.48-.37-.66-.16-.19-.35-.33-.58-.44-.23-.11-.48-.16-.76-.16h-1.44l.16-.18v4.49l-.16-.18h1.44Z"/>
        <path class="cls-1" d="M196.4,47.24h.86v5.71h-.86v-5.71Z"/>
        <path class="cls-1" d="M198.57,47.24h4.31v.82h-4.31v-.82ZM200.3,47.93h.84v5.02h-.84v-5.02Z"/>
        <path class="cls-1" d="M204.16,47.24h.86v5.71h-.86v-5.71Z"/>
        <path class="cls-1" d="M206.76,48.92c.13-.36.32-.67.57-.93.24-.26.53-.46.87-.61.34-.15.7-.22,1.1-.22s.77.07,1.11.22c.34.15.62.35.87.61.24.26.43.57.56.93.13.36.2.75.2,1.18s-.07.83-.2,1.19c-.14.36-.32.67-.56.93-.24.26-.53.46-.87.6-.34.14-.7.22-1.11.22s-.76-.07-1.1-.22c-.34-.14-.63-.34-.87-.6-.24-.26-.43-.57-.57-.93-.13-.36-.2-.75-.2-1.18s.07-.83.2-1.19ZM208.54,48.13c-.23.11-.42.25-.59.44-.16.19-.29.41-.37.67-.09.26-.13.54-.13.85s.04.6.13.87c.09.26.21.49.37.67.16.19.36.33.59.43.23.1.49.15.77.15s.54-.05.76-.15c.23-.1.42-.25.58-.43.16-.19.29-.41.37-.67.09-.26.13-.55.13-.87s-.04-.59-.13-.85c-.09-.26-.21-.48-.37-.67-.16-.19-.35-.33-.58-.44-.23-.11-.48-.16-.76-.16s-.54.05-.77.16Z"/>
        <path class="cls-1" d="M213.58,47.24h.86l3.25,4.44-.09.04v-4.49h.85v5.71h-.86l-3.25-4.41.1-.04v4.45h-.86v-5.71Z"/>
      </g>
    </g>
  </g>
</svg>