<?xml version="1.0" encoding="UTF-8"?>
<svg id="Camada_2" data-name="Camada 2" xmlns="http://www.w3.org/2000/svg" viewBox="0 0 417.57 128.14">
  <defs>
    <style>
      .cls-1 {
        fill: #fff;
      }
    </style>
  </defs>
  <g id="conteúdo">
    <g>
      <g>
        <g>
          <path class="cls-1" d="M86.93,128.08c-21.4-1.15-39.77-17.29-42.92-39.29-3.58-25.03,13.86-48.3,38.89-51.89l.88,6.13c-21.64,3.1-36.73,23.23-33.63,44.87,3.1,21.64,23.23,36.73,44.87,33.63l.47-.07.88,6.14-.47.07c-3.02.43-6.02.56-8.97.4Z"/>
          <path class="cls-1" d="M78.86,43.32c-4.18-.22-8.2-1.66-11.65-4.2-4.66-3.43-7.71-8.48-8.57-14.2-1.79-11.81,6.36-22.88,18.18-24.68,3.21-.49,6.41-.26,9.5.67l-1.79,5.93c-2.2-.66-4.48-.83-6.78-.48-8.44,1.28-14.26,9.18-12.98,17.62.62,4.09,2.79,7.69,6.12,10.14s7.41,3.46,11.5,2.84l.93,6.13c-1.49.23-2.98.3-4.45.22Z"/>
        </g>
        <path class="cls-1" d="M84.01,109.48c-5.48-.41-10.88-2.48-15.41-6.26-2.75-2.3-4.99-5.06-6.65-8.2l5.48-2.89c1.28,2.43,3.01,4.56,5.14,6.34,8.94,7.46,22.28,6.26,29.74-2.68,4.07-4.88,5.8-11.51,4.64-17.76-.64-3.43-2.06-6.42-4.21-8.89l-.51-.59c-2.74-3.14-5.58-6.38-7.06-10.71-2.71-7.87-1.08-16.73,4.25-23.12,8.45-10.12,23.55-11.48,33.67-3.03,2.75,2.3,4.9,5.1,6.39,8.34l-5.63,2.59c-1.1-2.39-2.7-4.47-4.74-6.17-7.5-6.26-18.69-5.25-24.94,2.25-3.95,4.73-5.16,11.3-3.15,17.13,1.09,3.18,3.41,5.83,5.87,8.65l.52.6c2.89,3.31,4.78,7.29,5.62,11.83,1.5,8.04-.73,16.59-5.97,22.87-5.87,7.03-14.56,10.36-23.06,9.72Z"/>
        <path class="cls-1" d="M67.09,80.42c-2.51-8.3-8.1-15.13-15.74-19.23-4.62-2.47-9.65-3.77-14.74-3.86,6.33-9.56,4.09-22.55-5.25-29.41-4.66-3.43-10.39-4.82-16.12-3.92-5.71.9-10.75,3.96-14.18,8.63l-1.07,1.45,24.78,55.49,5.66-2.53L7.17,34.95c2.37-2.58,5.52-4.27,9.03-4.82,4.09-.64,8.17.35,11.49,2.79,6.87,5.05,8.36,14.76,3.31,21.63-1.37,1.87-3.1,3.37-5.13,4.46l2.54,5.64c6.72-2.03,13.82-1.32,20.01,2s10.71,8.84,12.74,15.56c2.03,6.72,1.32,13.82-2,20.01-3.32,6.18-8.84,10.71-15.56,12.74l1.79,5.93c8.3-2.51,15.13-8.1,19.23-15.74,4.1-7.64,4.97-16.43,2.47-24.73Z"/>
      </g>
      <g>
        <path class="cls-1" d="M175.88,5.66h13.45c1.41,0,2.69.22,3.83.65,1.14.43,2.12,1.04,2.94,1.81.82.77,1.45,1.7,1.9,2.8.45,1.09.67,2.25.67,3.47,0,.8-.1,1.57-.31,2.29-.21.72-.5,1.4-.87,2.03-.37.63-.84,1.2-1.4,1.71-.56.51-1.2.93-1.9,1.25l-.14-.82c1.9.64,3.3,1.66,4.22,3.04.92,1.38,1.37,2.96,1.37,4.73,0,1.22-.23,2.39-.7,3.5-.47,1.11-1.11,2.07-1.93,2.89-.82.82-1.81,1.46-2.97,1.93-1.16.47-2.46.7-3.91.7h-14.27V5.66ZM188.95,31.94c.64,0,1.21-.1,1.69-.31.48-.21.89-.5,1.23-.87.34-.37.6-.79.8-1.25.19-.47.29-.96.29-1.47s-.1-1-.29-1.47c-.19-.47-.47-.88-.82-1.23-.35-.35-.77-.63-1.25-.84-.48-.21-1.03-.31-1.64-.31h-7.33v-5.4h6.7c.58,0,1.09-.09,1.54-.27.45-.18.84-.44,1.16-.8.32-.35.57-.75.75-1.21.18-.45.27-.92.27-1.4,0-.51-.09-1-.27-1.45-.18-.45-.43-.84-.77-1.18s-.73-.62-1.18-.84c-.45-.22-.98-.34-1.59-.34h-6.61l.87-.92v22.47l-.87-.92h7.33Z"/>
        <path class="cls-1" d="M211.51,9.47l.72-.82v28.98h-4.15V5.66h12.44c1.51,0,2.9.22,4.17.65,1.27.43,2.36,1.06,3.28,1.88.92.82,1.62,1.81,2.12,2.97.5,1.16.75,2.46.75,3.91,0,2.31-.64,4.28-1.93,5.88-1.29,1.61-3.04,2.7-5.26,3.28l.43-.96,7.81,14.37h-4.82l-7.28-13.74,1.06.67h-9.55v-3.81h9.02c1.96,0,3.48-.53,4.56-1.59,1.08-1.06,1.62-2.43,1.62-4.1s-.54-3.06-1.62-4.07c-1.08-1.01-2.6-1.52-4.56-1.52h-8.82Z"/>
        <path class="cls-1" d="M239.77,5.66h4.2v31.97h-4.2V5.66Z"/>
        <path class="cls-1" d="M254.47,5.66h11.81c2.22,0,4.27.4,6.15,1.21,1.88.8,3.5,1.92,4.85,3.35,1.35,1.43,2.41,3.13,3.18,5.09.77,1.96,1.16,4.08,1.16,6.36s-.39,4.4-1.16,6.34c-.77,1.95-1.83,3.63-3.18,5.06-1.35,1.43-2.97,2.55-4.85,3.35-1.88.8-3.93,1.21-6.15,1.21h-11.81V5.66ZM266.19,33.77c1.67,0,3.19-.31,4.56-.94,1.37-.63,2.53-1.48,3.5-2.56.96-1.08,1.71-2.35,2.24-3.83.53-1.48.8-3.07.8-4.77s-.27-3.3-.8-4.8c-.53-1.49-1.28-2.79-2.24-3.88-.96-1.09-2.13-1.95-3.5-2.58-1.37-.63-2.89-.94-4.56-.94h-8.39l.87-.96v26.23l-.87-.96h8.39Z"/>
        <path class="cls-1" d="M289.43,15.35c.77-2.03,1.84-3.79,3.21-5.3,1.37-1.51,3.01-2.7,4.94-3.57,1.93-.87,4.03-1.3,6.32-1.3,2.73,0,5.26.63,7.57,1.88,2.31,1.25,4.2,3.02,5.64,5.3l-3.18,2.36c-1.22-1.7-2.66-3.05-4.32-4.05-1.66-1-3.51-1.49-5.57-1.49-1.77,0-3.36.33-4.77.99-1.41.66-2.61,1.55-3.59,2.68-.98,1.13-1.73,2.45-2.24,3.98-.51,1.53-.77,3.16-.77,4.89s.25,3.26.75,4.77c.5,1.51,1.23,2.83,2.19,3.95.96,1.13,2.14,2.03,3.52,2.7,1.38.67,2.96,1.01,4.73,1.01,1.45,0,2.78-.23,4-.7,1.22-.47,2.28-1.11,3.18-1.93.9-.82,1.63-1.79,2.19-2.92.56-1.12.89-2.35.99-3.66h-10.61v-3.81h14.95c.06.26.1.51.1.77v.77c0,2.12-.35,4.11-1.04,5.98-.69,1.86-1.67,3.5-2.94,4.89-1.27,1.4-2.8,2.51-4.6,3.33-1.8.82-3.81,1.23-6.03,1.23-2.35,0-4.49-.42-6.44-1.25-1.95-.84-3.61-1.98-4.99-3.45-1.38-1.46-2.45-3.18-3.21-5.16-.76-1.98-1.13-4.11-1.13-6.39s.39-4.48,1.16-6.51Z"/>
        <path class="cls-1" d="M326.9,5.66h4.2v31.97h-4.2V5.66Z"/>
        <path class="cls-1" d="M341.65,5.66h4.29l19.24,25.94-.53.24V5.66h4.15v31.97h-4.24l-19.24-25.75.53-.24v25.99h-4.2V5.66Z"/>
        <path class="cls-1" d="M378.64,15.35c.77-2.03,1.84-3.79,3.21-5.3,1.37-1.51,3.01-2.7,4.94-3.57,1.93-.87,4.03-1.3,6.32-1.3,2.73,0,5.26.63,7.57,1.88,2.31,1.25,4.2,3.02,5.64,5.3l-3.18,2.36c-1.22-1.7-2.66-3.05-4.32-4.05-1.66-1-3.51-1.49-5.57-1.49-1.77,0-3.36.33-4.77.99-1.41.66-2.61,1.55-3.59,2.68-.98,1.13-1.73,2.45-2.24,3.98-.51,1.53-.77,3.16-.77,4.89s.25,3.26.75,4.77c.5,1.51,1.23,2.83,2.19,3.95.97,1.13,2.14,2.03,3.52,2.7,1.38.67,2.96,1.01,4.73,1.01,1.45,0,2.78-.23,4-.7,1.22-.47,2.28-1.11,3.18-1.93.9-.82,1.63-1.79,2.2-2.92.56-1.12.89-2.35.99-3.66h-10.61v-3.81h14.95c.06.26.1.51.1.77v.77c0,2.12-.35,4.11-1.04,5.98-.69,1.86-1.67,3.5-2.94,4.89s-2.8,2.51-4.61,3.33-3.81,1.23-6.03,1.23c-2.35,0-4.49-.42-6.44-1.25-1.95-.84-3.61-1.98-4.99-3.45-1.38-1.46-2.45-3.18-3.21-5.16-.76-1.98-1.13-4.11-1.13-6.39s.39-4.48,1.16-6.51Z"/>
        <path class="cls-1" d="M185.45,75.07v5.83h-21.6v-31.97h21.22v5.83h-15.38l.67-.77v21.84l-.67-.77h15.77ZM183.18,61.76v5.59h-13.69v-5.59h13.69Z"/>
        <path class="cls-1" d="M197.6,48.93v20.4c0,1.25.2,2.39.6,3.4.4,1.01.97,1.86,1.71,2.56.74.69,1.62,1.22,2.65,1.59,1.03.37,2.19.55,3.47.55s2.4-.18,3.45-.55c1.04-.37,1.94-.9,2.68-1.59.74-.69,1.31-1.54,1.71-2.56.4-1.01.6-2.15.6-3.4v-20.4h4.1v20.54c0,1.83-.3,3.48-.89,4.94-.6,1.46-1.44,2.72-2.53,3.76-1.09,1.05-2.41,1.84-3.95,2.39-1.54.55-3.26.82-5.16.82s-3.66-.27-5.21-.82c-1.54-.55-2.86-1.34-3.95-2.39-1.09-1.04-1.94-2.3-2.53-3.76-.6-1.46-.89-3.11-.89-4.94v-20.54h4.15Z"/>
        <path class="cls-1" d="M232.17,52.74l.72-.82v28.98h-4.15v-31.97h12.44c1.51,0,2.9.22,4.17.65,1.27.43,2.36,1.06,3.28,1.88.92.82,1.62,1.81,2.12,2.97.5,1.16.75,2.46.75,3.91,0,2.31-.64,4.28-1.93,5.88-1.29,1.61-3.04,2.7-5.26,3.28l.43-.96,7.81,14.37h-4.82l-7.28-13.74,1.06.67h-9.55v-3.81h9.02c1.96,0,3.48-.53,4.56-1.59,1.08-1.06,1.62-2.43,1.62-4.1s-.54-3.06-1.62-4.07c-1.08-1.01-2.6-1.52-4.56-1.52h-8.82Z"/>
        <path class="cls-1" d="M259.54,58.33c.76-2.03,1.82-3.77,3.18-5.23,1.37-1.46,2.99-2.6,4.87-3.42,1.88-.82,3.93-1.23,6.15-1.23s4.32.41,6.2,1.23c1.88.82,3.5,1.96,4.87,3.42,1.37,1.46,2.43,3.21,3.18,5.23.75,2.03,1.13,4.23,1.13,6.61s-.38,4.63-1.13,6.65c-.76,2.03-1.82,3.76-3.18,5.21-1.37,1.45-2.99,2.57-4.87,3.38-1.88.8-3.95,1.21-6.2,1.21s-4.27-.4-6.15-1.21c-1.88-.8-3.5-1.93-4.87-3.38-1.37-1.45-2.43-3.18-3.18-5.21-.76-2.03-1.13-4.23-1.13-6.61s.38-4.63,1.13-6.65ZM269.28,53.34c-1.37.63-2.53,1.5-3.5,2.6s-1.72,2.43-2.27,3.95c-.55,1.53-.82,3.19-.82,4.99s.27,3.56.82,5.09c.55,1.53,1.3,2.84,2.27,3.93.96,1.09,2.13,1.95,3.5,2.58,1.37.63,2.87.94,4.51.94s3.14-.31,4.51-.94c1.37-.63,2.53-1.49,3.5-2.58.96-1.09,1.7-2.4,2.22-3.93.51-1.53.77-3.22.77-5.09s-.26-3.46-.77-4.99c-.51-1.53-1.25-2.84-2.22-3.95-.96-1.11-2.13-1.98-3.5-2.6-1.37-.63-2.87-.94-4.51-.94s-3.14.31-4.51.94Z"/>
        <path class="cls-1" d="M301.95,51.97v28.93h-4.15v-31.97h12.2c1.51,0,2.88.23,4.12.7,1.24.47,2.28,1.13,3.13,2,.85.87,1.52,1.89,2,3.06.48,1.17.72,2.47.72,3.88s-.24,2.72-.72,3.91c-.48,1.19-1.15,2.22-2,3.09-.85.87-1.9,1.54-3.13,2.03-1.24.48-2.61.72-4.12.72h-8.97v-3.91h8.68c1.9,0,3.37-.55,4.41-1.66,1.04-1.11,1.57-2.5,1.57-4.17s-.52-3.09-1.57-4.17c-1.05-1.08-2.52-1.62-4.41-1.62h-8.49l.72-.82Z"/>
        <path class="cls-1" d="M348.86,77.04v3.86h-20.97v-31.97h20.49v3.86h-17.02l.72-.82v25.89l-.72-.82h17.5ZM346.26,62.53v3.86h-15.09v-3.86h15.09Z"/>
        <path class="cls-1" d="M366.32,48.93h4.58l12.59,31.97h-4.44l-3.04-8,.96.72h-16.78l1.01-.72-2.99,8h-4.39l12.49-31.97ZM361.45,70.05h14.42l-.48.77-7.09-17.7h.67l-7.09,17.7-.43-.77Z"/>
        <path class="cls-1" d="M390.42,48.93h4.29l19.24,25.94-.53.24v-26.18h4.15v31.97h-4.24l-19.24-25.75.53-.24v25.99h-4.2v-31.97Z"/>
        <path class="cls-1" d="M193.7,114.05c.8,1.58,1.83,2.76,3.09,3.54,1.25.79,2.75,1.18,4.48,1.18.67,0,1.29-.08,1.86-.24.56-.16,1.07-.39,1.52-.7.45-.31.8-.68,1.04-1.13.24-.45.36-.92.36-1.4,0-.55-.13-1.03-.39-1.45-.26-.42-.62-.78-1.09-1.09-.47-.31-1.07-.61-1.81-.92-.74-.31-1.59-.62-2.56-.94-1.38-.48-2.69-.99-3.93-1.52-1.24-.53-2.33-1.16-3.28-1.88-.95-.72-1.7-1.61-2.24-2.65-.55-1.04-.82-2.31-.82-3.79s.3-2.8.89-3.95c.59-1.16,1.41-2.14,2.44-2.94,1.03-.8,2.18-1.41,3.45-1.83,1.27-.42,2.6-.63,3.98-.63s2.6.17,3.76.51c1.16.34,2.19.79,3.11,1.35.92.56,1.72,1.25,2.41,2.05.69.8,1.28,1.67,1.76,2.6l-4.73,3.52c-.58-1.19-1.42-2.18-2.53-2.97-1.11-.79-2.4-1.18-3.88-1.18-.51,0-1.03.07-1.54.22-.51.14-.97.35-1.37.63-.4.27-.72.62-.96,1.04-.24.42-.36.9-.36,1.45,0,.67.17,1.22.51,1.64.34.42.77.79,1.3,1.11.53.32,1.12.6,1.76.84.64.24,1.25.44,1.83.6,1.48.55,2.88,1.09,4.2,1.62,1.32.53,2.45,1.17,3.4,1.93.95.76,1.7,1.66,2.24,2.72.55,1.06.82,2.36.82,3.91s-.33,2.9-.99,4.07c-.66,1.17-1.52,2.15-2.58,2.92-1.06.77-2.26,1.36-3.59,1.76-1.33.4-2.66.6-3.98.6-1.48,0-2.85-.17-4.12-.51-1.27-.34-2.43-.81-3.47-1.42-1.05-.61-1.97-1.36-2.77-2.24-.8-.88-1.46-1.86-1.98-2.92l4.77-3.52Z"/>
        <path class="cls-1" d="M220.07,101.68c.77-2.01,1.85-3.75,3.23-5.23,1.38-1.48,3.01-2.64,4.87-3.47,1.86-.84,3.87-1.25,6.03-1.25,1.38,0,2.71.17,3.98.51,1.27.34,2.46.83,3.57,1.47,1.11.64,2.13,1.43,3.06,2.36.93.93,1.77,2.01,2.51,3.23l-3.33,2.31c-1.25-2.03-2.7-3.51-4.34-4.46-1.64-.95-3.42-1.42-5.35-1.42-1.61,0-3.09.31-4.44.94-1.35.63-2.52,1.49-3.5,2.6-.98,1.11-1.74,2.42-2.29,3.93-.55,1.51-.82,3.17-.82,4.97s.27,3.51.82,5.04c.55,1.53,1.31,2.84,2.29,3.95.98,1.11,2.15,1.97,3.5,2.58,1.35.61,2.83.92,4.44.92,2.03,0,3.88-.48,5.57-1.45,1.69-.96,3.16-2.43,4.41-4.39l3.13,2.31c-.67,1.19-1.49,2.25-2.44,3.18-.95.93-1.99,1.72-3.11,2.36-1.13.64-2.32,1.13-3.59,1.47-1.27.34-2.6.51-3.98.51-2.15,0-4.17-.42-6.05-1.25-1.88-.84-3.51-1.99-4.89-3.47-1.38-1.48-2.47-3.22-3.25-5.23-.79-2.01-1.18-4.19-1.18-6.53s.39-4.48,1.16-6.49Z"/>
        <path class="cls-1" d="M255.27,92.21h4.2v31.97h-4.2v-31.97Z"/>
        <path class="cls-1" d="M290.95,120.32v3.86h-20.97v-31.97h20.49v3.86h-17.02l.72-.82v25.89l-.72-.82h17.5ZM288.35,105.8v3.86h-15.09v-3.86h15.09Z"/>
        <path class="cls-1" d="M299.58,92.21h4.29l19.24,25.94-.53.24v-26.18h4.15v31.97h-4.24l-19.24-25.75.53-.24v25.99h-4.2v-31.97Z"/>
        <path class="cls-1" d="M336.57,101.68c.77-2.01,1.85-3.75,3.23-5.23,1.38-1.48,3.01-2.64,4.87-3.47,1.86-.84,3.87-1.25,6.03-1.25,1.38,0,2.71.17,3.98.51,1.27.34,2.46.83,3.57,1.47,1.11.64,2.13,1.43,3.06,2.36.93.93,1.77,2.01,2.51,3.23l-3.33,2.31c-1.25-2.03-2.7-3.51-4.34-4.46-1.64-.95-3.42-1.42-5.35-1.42-1.61,0-3.09.31-4.44.94-1.35.63-2.52,1.49-3.5,2.6-.98,1.11-1.74,2.42-2.29,3.93-.55,1.51-.82,3.17-.82,4.97s.27,3.51.82,5.04c.55,1.53,1.31,2.84,2.29,3.95.98,1.11,2.15,1.97,3.5,2.58,1.35.61,2.83.92,4.44.92,2.03,0,3.88-.48,5.57-1.45,1.69-.96,3.16-2.43,4.41-4.39l3.13,2.31c-.67,1.19-1.49,2.25-2.44,3.18-.95.93-1.99,1.72-3.11,2.36-1.13.64-2.32,1.13-3.59,1.47-1.27.34-2.6.51-3.98.51-2.15,0-4.17-.42-6.05-1.25-1.88-.84-3.51-1.99-4.89-3.47-1.38-1.48-2.47-3.22-3.25-5.23-.79-2.01-1.18-4.19-1.18-6.53s.39-4.48,1.16-6.49Z"/>
        <path class="cls-1" d="M392.74,120.32v3.86h-20.97v-31.97h20.49v3.86h-17.02l.72-.82v25.89l-.72-.82h17.5ZM390.14,105.8v3.86h-15.09v-3.86h15.09Z"/>
      </g>
    </g>
  </g>
</svg>