<?xml version="1.0" encoding="UTF-8"?>
<svg id="Camada_2" data-name="Camada 2" xmlns="http://www.w3.org/2000/svg" viewBox="0 0 660.06 517.87">
  <g id="conteúdo">
    <g>
      <g>
        <g>
          <path d="M204.31,301c-50.3-2.69-93.47-40.63-100.87-92.34-8.42-58.82,32.58-113.52,91.4-121.94l2.06,14.42c-50.87,7.28-86.32,54.59-79.04,105.46,7.28,50.87,54.59,86.32,105.46,79.04l1.11-.16,2.07,14.42-1.12.16c-7.1,1.02-14.16,1.31-21.07.94Z"/>
          <path d="M185.33,101.81c-9.82-.53-19.28-3.9-27.38-9.86-10.95-8.07-18.11-19.92-20.15-33.37-4.21-27.77,14.95-53.78,42.72-57.99,7.55-1.14,15.06-.61,22.33,1.58l-4.21,13.94c-5.18-1.56-10.54-1.94-15.93-1.12-19.82,3.01-33.51,21.58-30.5,41.4,1.46,9.6,6.56,18.06,14.38,23.82,7.82,5.76,17.41,8.13,27.02,6.68l2.18,14.4c-3.5.53-7.01.7-10.46.51Z"/>
        </g>
        <path d="M197.44,257.3c-12.87-.97-25.57-5.82-36.21-14.7-6.46-5.4-11.72-11.88-15.63-19.27l12.88-6.8c3.02,5.71,7.08,10.72,12.08,14.89,21,17.54,52.36,14.71,69.9-6.29,9.56-11.46,13.64-27.06,10.9-41.73-1.51-8.07-4.83-15.1-9.89-20.9l-1.21-1.38c-6.44-7.37-13.1-15-16.6-25.16-6.37-18.51-2.54-39.33,9.99-54.34,19.85-23.78,55.35-26.98,79.14-7.13,6.47,5.4,11.52,11.99,15.02,19.59l-13.23,6.09c-2.59-5.62-6.33-10.5-11.13-14.5-17.62-14.71-43.92-12.34-58.62,5.28-9.28,11.12-12.12,26.55-7.4,40.26,2.57,7.47,8.02,13.71,13.8,20.32l1.22,1.4c6.78,7.79,11.23,17.14,13.22,27.79,3.53,18.9-1.72,38.99-14.04,53.74-13.8,16.53-34.21,24.36-54.2,22.84Z"/>
        <path d="M157.66,189.01c-5.89-19.51-19.03-35.56-36.99-45.19-10.85-5.82-22.67-8.85-34.63-9.06,14.87-22.47,9.61-52.99-12.33-69.11-10.96-8.05-24.41-11.32-37.88-9.21-13.43,2.11-25.26,9.31-33.32,20.27l-2.51,3.41,58.24,130.4,13.3-5.94L16.86,82.15c5.58-6.06,12.98-10.04,21.22-11.33,9.6-1.51,19.19.82,27,6.56,16.16,11.87,19.64,34.68,7.77,50.83-3.23,4.4-7.28,7.93-12.05,10.49l5.96,13.26c15.79-4.77,32.49-3.1,47.02,4.69s25.16,20.78,29.93,36.57c4.77,15.79,3.1,32.49-4.69,47.02-7.79,14.53-20.78,25.16-36.57,29.93l4.21,13.94c19.51-5.89,35.56-19.03,45.19-36.99,9.63-17.96,11.69-38.6,5.8-58.11Z"/>
      </g>
      <g>
        <path d="M272.8,244.11h12.13c1.27,0,2.43.2,3.46.59,1.03.39,1.91.93,2.65,1.63.74.7,1.31,1.54,1.72,2.52.41.99.61,2.03.61,3.13,0,.72-.09,1.41-.28,2.06-.19.65-.45,1.26-.78,1.83-.33.57-.75,1.08-1.26,1.54-.51.46-1.08.84-1.72,1.13l-.13-.74c1.71.58,2.98,1.49,3.8,2.74.83,1.25,1.24,2.67,1.24,4.26,0,1.1-.21,2.15-.63,3.15-.42,1-1,1.87-1.74,2.61-.74.74-1.63,1.32-2.67,1.74-1.04.42-2.22.63-3.52.63h-12.87v-28.82ZM284.58,267.8c.58,0,1.09-.09,1.52-.28.44-.19.8-.45,1.11-.78.3-.33.54-.71.72-1.13.17-.42.26-.86.26-1.33s-.09-.91-.26-1.33c-.17-.42-.42-.79-.74-1.11-.32-.32-.7-.57-1.13-.76-.43-.19-.93-.28-1.48-.28h-6.61v-4.87h6.04c.52,0,.98-.08,1.39-.24.41-.16.75-.4,1.04-.72.29-.32.51-.68.67-1.09.16-.41.24-.83.24-1.26,0-.46-.08-.9-.24-1.3-.16-.41-.39-.76-.7-1.07s-.66-.56-1.07-.76c-.41-.2-.88-.3-1.43-.3h-5.96l.78-.83v20.26l-.78-.83h6.61Z"/>
        <path d="M304.92,247.54l.65-.74v26.13h-3.74v-28.82h11.22c1.36,0,2.62.2,3.76.59,1.14.39,2.13.96,2.96,1.7.83.74,1.46,1.63,1.91,2.67.45,1.04.67,2.22.67,3.52,0,2.09-.58,3.85-1.74,5.3-1.16,1.45-2.74,2.43-4.74,2.96l.39-.87,7.04,12.95h-4.35l-6.56-12.39.96.61h-8.61v-3.43h8.13c1.77,0,3.14-.48,4.11-1.43.97-.96,1.46-2.19,1.46-3.7s-.49-2.76-1.46-3.67c-.97-.91-2.34-1.37-4.11-1.37h-7.96Z"/>
        <path d="M330.4,244.11h3.78v28.82h-3.78v-28.82Z"/>
        <path d="M343.66,244.11h10.65c2,0,3.85.36,5.54,1.09,1.7.73,3.15,1.73,4.37,3.02,1.22,1.29,2.17,2.82,2.87,4.59.7,1.77,1.04,3.68,1.04,5.74s-.35,3.96-1.04,5.72c-.7,1.75-1.65,3.28-2.87,4.56-1.22,1.29-2.67,2.3-4.37,3.02-1.7.73-3.54,1.09-5.54,1.09h-10.65v-28.82ZM354.22,269.45c1.51,0,2.88-.28,4.11-.85,1.23-.57,2.28-1.33,3.15-2.3.87-.97,1.54-2.12,2.02-3.46.48-1.33.72-2.77.72-4.3s-.24-2.98-.72-4.33-1.15-2.51-2.02-3.5c-.87-.98-1.92-1.76-3.15-2.33-1.23-.57-2.6-.85-4.11-.85h-7.56l.78-.87v23.65l-.78-.87h7.56Z"/>
        <path d="M375.18,252.85c.7-1.83,1.66-3.42,2.89-4.78,1.23-1.36,2.72-2.43,4.46-3.22,1.74-.78,3.64-1.17,5.69-1.17,2.46,0,4.74.57,6.83,1.7,2.09,1.13,3.78,2.72,5.09,4.78l-2.87,2.13c-1.1-1.54-2.4-2.75-3.89-3.65-1.49-.9-3.17-1.35-5.02-1.35-1.59,0-3.03.3-4.3.89-1.28.59-2.35,1.4-3.24,2.41-.88,1.01-1.56,2.21-2.02,3.59-.46,1.38-.7,2.85-.7,4.41s.22,2.94.67,4.3c.45,1.36,1.11,2.55,1.98,3.56.87,1.01,1.93,1.83,3.17,2.43,1.25.61,2.67.91,4.26.91,1.3,0,2.51-.21,3.61-.63,1.1-.42,2.06-1,2.87-1.74.81-.74,1.47-1.62,1.98-2.63.51-1.01.8-2.12.89-3.3h-9.56v-3.43h13.48c.06.23.09.46.09.7v.7c0,1.91-.31,3.71-.93,5.39-.62,1.68-1.51,3.15-2.65,4.41-1.15,1.26-2.53,2.26-4.15,3-1.62.74-3.43,1.11-5.43,1.11-2.12,0-4.05-.38-5.8-1.13-1.75-.75-3.25-1.79-4.5-3.11-1.25-1.32-2.21-2.87-2.89-4.65-.68-1.78-1.02-3.7-1.02-5.76s.35-4.04,1.04-5.87Z"/>
        <path d="M408.95,244.11h3.78v28.82h-3.78v-28.82Z"/>
        <path d="M422.26,244.11h3.87l17.35,23.39-.48.22v-23.61h3.74v28.82h-3.83l-17.35-23.21.48-.22v23.43h-3.78v-28.82Z"/>
        <path d="M455.6,252.85c.7-1.83,1.66-3.42,2.89-4.78,1.23-1.36,2.72-2.43,4.46-3.22,1.74-.78,3.64-1.17,5.69-1.17,2.46,0,4.74.57,6.82,1.7,2.09,1.13,3.78,2.72,5.09,4.78l-2.87,2.13c-1.1-1.54-2.4-2.75-3.89-3.65-1.49-.9-3.17-1.35-5.02-1.35-1.59,0-3.03.3-4.3.89-1.28.59-2.36,1.4-3.24,2.41-.88,1.01-1.56,2.21-2.02,3.59-.46,1.38-.7,2.85-.7,4.41s.22,2.94.67,4.3c.45,1.36,1.11,2.55,1.98,3.56.87,1.01,1.93,1.83,3.17,2.43,1.25.61,2.67.91,4.26.91,1.31,0,2.51-.21,3.61-.63,1.1-.42,2.06-1,2.87-1.74.81-.74,1.47-1.62,1.98-2.63.51-1.01.8-2.12.89-3.3h-9.56v-3.43h13.48c.06.23.09.46.09.7v.7c0,1.91-.31,3.71-.93,5.39-.62,1.68-1.51,3.15-2.65,4.41s-2.53,2.26-4.15,3c-1.62.74-3.43,1.11-5.43,1.11-2.12,0-4.05-.38-5.8-1.13-1.75-.75-3.25-1.79-4.5-3.11-1.25-1.32-2.21-2.87-2.89-4.65-.68-1.78-1.02-3.7-1.02-5.76s.35-4.04,1.04-5.87Z"/>
        <path d="M281.43,306.69v5.26h-19.48v-28.82h19.13v5.26h-13.87l.61-.7v19.69l-.61-.7h14.22ZM279.38,294.69v5.04h-12.35v-5.04h12.35Z"/>
        <path d="M292.38,283.12v18.39c0,1.13.18,2.15.54,3.06.36.91.88,1.68,1.54,2.3.67.62,1.46,1.1,2.39,1.43.93.33,1.97.5,3.13.5s2.17-.17,3.11-.5c.94-.33,1.75-.81,2.41-1.43.67-.62,1.18-1.39,1.54-2.3.36-.91.54-1.93.54-3.06v-18.39h3.69v18.52c0,1.65-.27,3.14-.8,4.46-.54,1.32-1.3,2.45-2.28,3.39-.99.94-2.17,1.66-3.56,2.15-1.39.49-2.94.74-4.65.74s-3.3-.25-4.7-.74c-1.39-.49-2.58-1.21-3.56-2.15-.99-.94-1.75-2.07-2.28-3.39-.54-1.32-.8-2.8-.8-4.46v-18.52h3.74Z"/>
        <path d="M323.55,286.56l.65-.74v26.13h-3.74v-28.82h11.22c1.36,0,2.62.2,3.76.59,1.14.39,2.13.96,2.96,1.7.83.74,1.46,1.63,1.91,2.67.45,1.04.67,2.22.67,3.52,0,2.09-.58,3.85-1.74,5.3-1.16,1.45-2.74,2.43-4.74,2.96l.39-.87,7.04,12.95h-4.35l-6.56-12.39.96.61h-8.61v-3.43h8.13c1.77,0,3.14-.48,4.11-1.43.97-.96,1.46-2.19,1.46-3.7s-.49-2.76-1.46-3.67c-.97-.91-2.34-1.37-4.11-1.37h-7.96Z"/>
        <path d="M348.22,291.6c.68-1.83,1.64-3.4,2.87-4.72,1.23-1.32,2.7-2.35,4.39-3.09,1.7-.74,3.54-1.11,5.54-1.11s3.89.37,5.59,1.11c1.7.74,3.16,1.77,4.39,3.09,1.23,1.32,2.19,2.89,2.87,4.72.68,1.83,1.02,3.81,1.02,5.96s-.34,4.17-1.02,6c-.68,1.83-1.64,3.39-2.87,4.7-1.23,1.3-2.7,2.32-4.39,3.04-1.7.72-3.56,1.09-5.59,1.09s-3.85-.36-5.54-1.09c-1.7-.72-3.16-1.74-4.39-3.04-1.23-1.3-2.19-2.87-2.87-4.7-.68-1.83-1.02-3.81-1.02-5.96s.34-4.17,1.02-6ZM357.01,287.1c-1.23.57-2.28,1.35-3.15,2.35s-1.55,2.19-2.04,3.56c-.49,1.38-.74,2.88-.74,4.5s.25,3.21.74,4.59c.49,1.38,1.17,2.56,2.04,3.54.87.99,1.92,1.76,3.15,2.33,1.23.57,2.59.85,4.06.85s2.83-.28,4.06-.85c1.23-.57,2.28-1.34,3.15-2.33.87-.98,1.54-2.17,2-3.54.46-1.38.7-2.9.7-4.59s-.23-3.12-.7-4.5c-.46-1.38-1.13-2.56-2-3.56-.87-1-1.92-1.78-3.15-2.35-1.23-.57-2.59-.85-4.06-.85s-2.83.28-4.06.85Z"/>
        <path d="M386.46,285.86v26.08h-3.74v-28.82h11c1.36,0,2.6.21,3.72.63,1.12.42,2.06,1.02,2.83,1.8.77.78,1.37,1.7,1.8,2.76.43,1.06.65,2.22.65,3.5s-.22,2.45-.65,3.52c-.43,1.07-1.04,2-1.8,2.78-.77.78-1.71,1.39-2.83,1.83-1.12.43-2.36.65-3.72.65h-8.09v-3.52h7.82c1.71,0,3.04-.5,3.98-1.5.94-1,1.41-2.25,1.41-3.76s-.47-2.79-1.41-3.76c-.94-.97-2.27-1.46-3.98-1.46h-7.65l.65-.74Z"/>
        <path d="M428.76,308.47v3.48h-18.91v-28.82h18.48v3.48h-15.35l.65-.74v23.35l-.65-.74h15.78ZM426.41,295.38v3.48h-13.61v-3.48h13.61Z"/>
        <path d="M444.49,283.12h4.13l11.35,28.82h-4l-2.74-7.22.87.65h-15.13l.91-.65-2.7,7.22h-3.96l11.26-28.82ZM440.1,302.16h13l-.43.7-6.39-15.95h.61l-6.39,15.95-.39-.7Z"/>
        <path d="M466.23,283.12h3.87l17.35,23.39-.48.22v-23.61h3.74v28.82h-3.83l-17.35-23.21.48-.22v23.43h-3.78v-28.82Z"/>
        <path d="M288.86,341.83c.72,1.42,1.65,2.49,2.78,3.2,1.13.71,2.48,1.07,4.04,1.07.61,0,1.17-.07,1.67-.22.51-.14.96-.35,1.37-.63.41-.28.72-.62.93-1.02.22-.41.33-.83.33-1.26,0-.49-.12-.93-.35-1.3-.23-.38-.56-.7-.98-.98-.42-.28-.96-.55-1.63-.83-.67-.28-1.43-.56-2.3-.85-1.25-.43-2.43-.89-3.54-1.37-1.12-.48-2.1-1.04-2.96-1.7-.86-.65-1.53-1.45-2.02-2.39-.49-.94-.74-2.08-.74-3.41s.27-2.52.8-3.56c.54-1.04,1.27-1.93,2.2-2.65.93-.72,1.96-1.28,3.11-1.65,1.14-.38,2.34-.57,3.59-.57s2.35.15,3.39.46c1.04.3,1.98.71,2.8,1.22.83.51,1.55,1.12,2.17,1.85.62.72,1.15,1.51,1.59,2.35l-4.26,3.17c-.52-1.07-1.28-1.96-2.28-2.67-1-.71-2.17-1.07-3.5-1.07-.46,0-.93.07-1.39.2-.46.13-.88.32-1.24.57-.36.25-.65.56-.87.93-.22.38-.33.81-.33,1.3,0,.61.15,1.1.46,1.48.3.38.7.71,1.17,1,.48.29,1.01.54,1.59.76.58.22,1.13.4,1.65.54,1.33.49,2.59.98,3.78,1.46,1.19.48,2.21,1.06,3.06,1.74.85.68,1.53,1.5,2.02,2.46.49.96.74,2.13.74,3.52s-.3,2.62-.89,3.67c-.59,1.06-1.37,1.93-2.33,2.63-.96.7-2.04,1.22-3.24,1.59-1.2.36-2.4.54-3.59.54-1.33,0-2.57-.15-3.72-.46-1.15-.3-2.19-.73-3.13-1.28-.94-.55-1.78-1.22-2.5-2.02-.72-.8-1.32-1.67-1.78-2.63l4.3-3.17Z"/>
        <path d="M312.64,330.68c.7-1.81,1.67-3.38,2.91-4.72,1.25-1.33,2.71-2.38,4.39-3.13,1.68-.75,3.49-1.13,5.43-1.13,1.25,0,2.44.15,3.59.46,1.14.3,2.22.75,3.22,1.33,1,.58,1.92,1.29,2.76,2.13.84.84,1.59,1.81,2.26,2.91l-3,2.09c-1.13-1.83-2.43-3.17-3.91-4.02-1.48-.85-3.09-1.28-4.83-1.28-1.45,0-2.78.28-4,.85-1.22.57-2.27,1.35-3.15,2.35-.88,1-1.57,2.18-2.06,3.54-.49,1.36-.74,2.85-.74,4.48s.25,3.17.74,4.54c.49,1.38,1.18,2.56,2.06,3.57.88,1,1.93,1.78,3.15,2.33,1.22.55,2.55.83,4,.83,1.83,0,3.5-.43,5.02-1.3,1.52-.87,2.85-2.19,3.98-3.96l2.83,2.09c-.61,1.07-1.34,2.03-2.2,2.87-.85.84-1.79,1.55-2.8,2.13-1.01.58-2.09,1.02-3.24,1.33-1.15.3-2.34.46-3.59.46-1.94,0-3.76-.38-5.46-1.13-1.7-.75-3.17-1.8-4.41-3.13-1.25-1.33-2.22-2.91-2.93-4.72-.71-1.81-1.07-3.77-1.07-5.89s.35-4.04,1.04-5.85Z"/>
        <path d="M344.38,322.14h3.78v28.82h-3.78v-28.82Z"/>
        <path d="M376.55,347.48v3.48h-18.91v-28.82h18.48v3.48h-15.35l.65-.74v23.35l-.65-.74h15.78ZM374.2,334.4v3.48h-13.61v-3.48h13.61Z"/>
        <path d="M384.33,322.14h3.87l17.35,23.39-.48.22v-23.61h3.74v28.82h-3.83l-17.35-23.21.48-.22v23.43h-3.78v-28.82Z"/>
        <path d="M417.67,330.68c.7-1.81,1.67-3.38,2.91-4.72,1.25-1.33,2.71-2.38,4.39-3.13,1.68-.75,3.49-1.13,5.43-1.13,1.25,0,2.44.15,3.59.46,1.14.3,2.22.75,3.22,1.33,1,.58,1.92,1.29,2.76,2.13.84.84,1.59,1.81,2.26,2.91l-3,2.09c-1.13-1.83-2.43-3.17-3.91-4.02-1.48-.85-3.09-1.28-4.83-1.28-1.45,0-2.78.28-4,.85-1.22.57-2.27,1.35-3.15,2.35-.88,1-1.57,2.18-2.06,3.54-.49,1.36-.74,2.85-.74,4.48s.25,3.17.74,4.54c.49,1.38,1.18,2.56,2.06,3.57.88,1,1.93,1.78,3.15,2.33,1.22.55,2.55.83,4,.83,1.83,0,3.5-.43,5.02-1.3,1.52-.87,2.85-2.19,3.98-3.96l2.83,2.09c-.61,1.07-1.34,2.03-2.2,2.87-.85.84-1.79,1.55-2.8,2.13-1.01.58-2.09,1.02-3.24,1.33-1.15.3-2.34.46-3.59.46-1.94,0-3.76-.38-5.46-1.13-1.7-.75-3.17-1.8-4.41-3.13-1.25-1.33-2.22-2.91-2.93-4.72-.71-1.81-1.07-3.77-1.07-5.89s.35-4.04,1.04-5.85Z"/>
        <path d="M468.32,347.48v3.48h-18.91v-28.82h18.48v3.48h-15.35l.65-.74v23.35l-.65-.74h15.78ZM465.97,334.4v3.48h-13.61v-3.48h13.61Z"/>
      </g>
      <path d="M646.53,341.53l13.53,6.15-73.4,169.76h-17.51l-73.29-170.09,13.41-5.82,70.22,161.58h-3.18l70.22-161.58Z"/>
      <g>
        <path d="M478.28,486.57h8.26v1.77h-6.64l.31-.35v11.34h-1.93v-12.77ZM485.18,491.94v1.75h-5.35v-1.75h5.35Z"/>
        <path d="M489.72,486.57h1.93v12.77h-1.93v-12.77Z"/>
        <path d="M495.81,486.57h8.26v1.77h-6.64l.31-.35v11.34h-1.93v-12.77ZM502.7,491.94v1.75h-5.35v-1.75h5.35Z"/>
        <path d="M506.01,486.57h9.65v1.83h-9.65v-1.83ZM509.88,488.11h1.87v11.23h-1.87v-11.23Z"/>
        <path d="M518.53,486.57h1.93v12.77h-1.93v-12.77ZM527.12,491.94v1.75h-7.05v-1.75h7.05ZM526.73,499.33v-12.77h1.93v12.77h-1.93Z"/>
        <path d="M474.18,515.9v1.77h-8.49v-12.77h8.3v1.77h-6.68l.31-.35v9.92l-.31-.35h6.87ZM473.18,510.24v1.75h-5.95v-1.75h5.95Z"/>
        <path d="M477.59,504.91h4.81c.89,0,1.7.16,2.45.48.74.32,1.38.77,1.92,1.34.53.57.95,1.25,1.25,2.03.3.78.45,1.63.45,2.54s-.15,1.76-.45,2.53c-.3.78-.72,1.45-1.25,2.02-.53.57-1.17,1.02-1.92,1.34-.74.32-1.56.48-2.45.48h-4.81v-12.77ZM482.37,515.9c.62,0,1.18-.12,1.69-.36.51-.24.95-.56,1.3-.97.35-.41.63-.9.83-1.46s.3-1.17.3-1.81-.1-1.25-.3-1.82c-.2-.57-.48-1.07-.83-1.48-.35-.42-.79-.74-1.3-.98-.51-.24-1.08-.36-1.69-.36h-3.22l.37-.4v10.05l-.37-.4h3.22Z"/>
        <path d="M491.88,504.91h1.93v12.77h-1.93v-12.77Z"/>
        <path d="M496.73,504.91h9.65v1.83h-9.65v-1.83ZM500.6,506.45h1.87v11.23h-1.87v-11.23Z"/>
        <path d="M509.25,504.91h1.93v12.77h-1.93v-12.77Z"/>
        <path d="M515.05,508.66c.3-.81.73-1.51,1.27-2.09.55-.58,1.19-1.04,1.94-1.37.75-.33,1.57-.49,2.46-.49s1.72.16,2.47.49c.75.33,1.4.78,1.94,1.37.54.58.96,1.28,1.26,2.09.3.81.45,1.69.45,2.64s-.15,1.85-.45,2.66c-.3.81-.72,1.5-1.26,2.08-.54.58-1.18,1.03-1.94,1.35-.75.32-1.58.48-2.47.48s-1.7-.16-2.46-.48c-.75-.32-1.4-.77-1.94-1.35-.55-.58-.97-1.27-1.27-2.08-.3-.81-.45-1.69-.45-2.64s.15-1.85.45-2.66ZM519.03,506.9c-.51.24-.95.56-1.31.98-.36.42-.64.92-.84,1.5-.2.58-.3,1.22-.3,1.9s.1,1.35.3,1.94c.2.58.48,1.08.84,1.5.36.42.8.74,1.31.97.51.23,1.08.35,1.71.35s1.2-.12,1.7-.35c.51-.23.94-.56,1.3-.97.36-.42.64-.92.84-1.5.2-.58.3-1.23.3-1.94s-.1-1.31-.3-1.9c-.2-.58-.48-1.08-.84-1.5-.36-.42-.79-.74-1.3-.98-.51-.24-1.08-.36-1.7-.36s-1.2.12-1.71.36Z"/>
        <path d="M530.31,504.91h1.93l7.28,9.94-.21.1v-10.03h1.91v12.77h-1.93l-7.28-9.86.23-.1v9.96h-1.93v-12.77Z"/>
      </g>
    </g>
  </g>
</svg>