<?xml version="1.0" encoding="UTF-8"?>
<svg id="Camada_2" data-name="Camada 2" xmlns="http://www.w3.org/2000/svg" viewBox="0 0 62.72 57.62">
  <defs>
    <style>
      .cls-1 {
        fill: #3c98c8;
      }

      .cls-2 {
        fill: #24a444;
      }
    </style>
  </defs>
  <g id="conteúdo">
    <g>
      <g>
        <path class="cls-1" d="M39.09,57.59c-9.62-.52-17.88-7.77-19.3-17.67-1.61-11.25,6.23-21.72,17.49-23.33l.39,2.76c-9.73,1.39-16.52,10.44-15.12,20.18,1.39,9.73,10.44,16.52,20.18,15.12l.21-.03.4,2.76-.21.03c-1.36.19-2.71.25-4.03.18Z"/>
        <path class="cls-1" d="M35.46,19.48c-1.88-.1-3.69-.75-5.24-1.89-2.1-1.54-3.46-3.81-3.85-6.38C25.56,5.89,29.23.92,34.54.11c1.44-.22,2.88-.12,4.27.3l-.81,2.67c-.99-.3-2.02-.37-3.05-.21-3.79.58-6.41,4.13-5.84,7.92.28,1.84,1.26,3.46,2.75,4.56s3.33,1.56,5.17,1.28l.42,2.76c-.67.1-1.34.13-2,.1Z"/>
      </g>
      <path class="cls-2" d="M37.78,49.23c-2.46-.19-4.89-1.11-6.93-2.81-1.24-1.03-2.24-2.27-2.99-3.69l2.46-1.3c.58,1.09,1.35,2.05,2.31,2.85,4.02,3.36,10.02,2.81,13.37-1.2,1.83-2.19,2.61-5.18,2.09-7.99-.29-1.54-.92-2.89-1.89-4l-.23-.26c-1.23-1.41-2.51-2.87-3.18-4.81-1.22-3.54-.49-7.52,1.91-10.4,3.8-4.55,10.59-5.16,15.14-1.36,1.24,1.03,2.2,2.29,2.87,3.75l-2.53,1.17c-.5-1.08-1.21-2.01-2.13-2.78-3.37-2.81-8.4-2.36-11.22,1.01-1.78,2.13-2.32,5.08-1.42,7.7.49,1.43,1.53,2.62,2.64,3.89l.23.27c1.3,1.49,2.15,3.28,2.53,5.32.67,3.62-.33,7.46-2.69,10.28-2.64,3.16-6.55,4.66-10.37,4.37Z"/>
      <path class="cls-2" d="M30.16,36.16c-1.13-3.73-3.64-6.8-7.08-8.65-2.08-1.11-4.34-1.69-6.63-1.73,2.84-4.3,1.84-10.14-2.36-13.22-2.1-1.54-4.67-2.17-7.25-1.76-2.57.4-4.83,1.78-6.37,3.88l-.48.65,11.14,24.95,2.54-1.14L3.23,15.72c1.07-1.16,2.48-1.92,4.06-2.17,1.84-.29,3.67.16,5.17,1.25,3.09,2.27,3.76,6.63,1.49,9.73-.62.84-1.39,1.52-2.3,2.01l1.14,2.54c3.02-.91,6.22-.59,9,.9,2.78,1.49,4.81,3.98,5.73,7,.91,3.02.59,6.22-.9,9-1.49,2.78-3.98,4.81-7,5.73l.81,2.67c3.73-1.13,6.8-3.64,8.65-7.08,1.84-3.44,2.24-7.39,1.11-11.12Z"/>
    </g>
  </g>
</svg>